<?xml version="1.0" encoding="UTF-8" standalone="no"?>
<svg
   xmlns:dc="http://purl.org/dc/elements/1.1/"
   xmlns:cc="http://creativecommons.org/ns#"
   xmlns:rdf="http://www.w3.org/1999/02/22-rdf-syntax-ns#"
   xmlns:svg="http://www.w3.org/2000/svg"
   xmlns="http://www.w3.org/2000/svg"
   height="905.59406"
   width="965.16638"
   version="1.1"
   viewBox="0 0 965.16638 905.59409"
   id="svg2">
  <defs
     id="defs4">
    <radialGradient
       r="145"
       gradientTransform="matrix(0.9469192,0,0,0.9469192,-157.84295,52.866244)"
       cx="153.67"
       cy="518.46002"
       gradientUnits="userSpaceOnUse"
       id="radialGradient4690">
      <stop
         offset="0"
         style="stop-color:#d5f6ff"
         id="stop4150-9" />
      <stop
         offset=".79233"
         style="stop-color:#00ccff"
         id="stop4156-4" />
      <stop
         offset="1"
         style="stop-color:#004455"
         id="stop4152-6" />
    </radialGradient>
    <radialGradient
       r="145"
       gradientTransform="matrix(0.91998,0,0,0.91998,-149.48644,59.670066)"
       cx="153.67"
       cy="518.46002"
       gradientUnits="userSpaceOnUse"
       id="radialGradient4692">
      <stop
         offset="0"
         style="stop-color:#adcfad"
         id="stop4519" />
      <stop
         offset=".79233"
         style="stop-color:#00cf00"
         id="stop4521" />
      <stop
         offset="1"
         style="stop-color:#004400"
         id="stop4523" />
    </radialGradient>
    <style
       type="text/css"
       id="style45128">
    .str0 {stroke:#373435;stroke-width:0.7056}
    .fil1 {fill:#00A859}
    .fil4 {fill:#00AFEF}
    .fil2 {fill:#373435}
    .fil3 {fill:#ED3237}
    .fil0 {fill:#FFF212}
  </style>
  </defs>
  <g
     transform="translate(1006.4116,-191.11052)"
     id="layer1">
    <g
       transform="matrix(3.4648989,0,0,3.4249059,-648.09315,-1408.8016)"
       id="g4682">
      <ellipse
         ry="76.390274"
         rx="76.32486"
         cy="600.159"
         cx="26.226276"
         id="path44964"
         style="opacity:1;fill:#000000;fill-opacity:1;stroke:none;stroke-width:1.45144439;stroke-linecap:round;stroke-linejoin:round;stroke-miterlimit:4;stroke-dasharray:none;stroke-opacity:1" />
      <circle
         r="74.621353"
         cy="599.79041"
         cx="26.168148"
         style="color:#000000;fill:url(#radialGradient4690);fill-rule:evenodd;stroke:#008080;stroke-width:0.51463002"
         id="path3924" />
      <path
         style="color:#000000;fill:url(#radialGradient4692);fill-rule:evenodd;stroke:#277a27;stroke-width:0.5;stroke-opacity:1"
         d="m 25.793558,525.55007 c -2.9982,0 -5.9538,0.1713 -8.8594,0.51563 l 0.82812,0.10937 c 0,0 1.7306,0.76107 2.0156,1.0469 0.29144,0.28822 0.20757,1.16 0.10937,1.6406 -0.0998,0.48146 -0.38158,0.57899 -0.76562,1.1562 -0.38646,0.57888 0.76562,0.28125 0.76562,0.28125 l 1.3438,0.67188 c 0,0 -0.38907,0.01 -0.96875,0.10937 -0.5797,0.0958 -1.3438,0.28125 -1.3438,0.28125 l -0.0937,1.0625 1.9219,-0.39062 -0.1875,0.67187 -1.3438,0.29688 -1.3594,1.625 -0.0937,3.0781 0.29688,2.6094 0.76562,2.1094 1.25,0.20313 1.4375,0.85937 1.9375,-0.0937 1.9219,-2.5938 2.0156,-1.9375 0.57813,-1.0469 0.96875,-0.57813 2.1094,-0.48437 2.6875,-0.57813 c 0,0 2.5046,-1.6357 2.7969,-1.8281 0.28582,-0.1916 7.2188,-2.3125 7.2188,-2.3125 l 1.5312,0.0937 c 0,0 0.39763,-1.917 0.10937,-2.1094 -0.29224,-0.1916 1.1406,-1.3438 1.1406,-1.3438 0,0 0.20951,-0.099 0.26562,-0.125 -6.662,-1.9541 -13.706,-3 -21,-3 z m -22.2660005,3.375 c -3.60009997,1.1259 -7.0797,2.5217 -10.422,4.1562 l -0.10937,0.25 -1.0625,0.57813 -1.2969,0.96875 -1.1093995,0.42187 -0.0781,-0.29687 c -3.6821,2.062 -7.1754,4.4272 -10.438,7.0625 1.6554,-0.8244 4.5,-2.2812 4.5,-2.2812 l 0.67188,-0.71875 1.1094,-0.10938 2.4062,-1.0938 1.8281,-1.25 0.1875,0.0937 -1.3906,1.2969 -0.375,0.48437 -1.1094,0.53125 1,0.14063 -0.14063,0.57812 1.1094,-0.20312 1.1094,-0.90625 0.8593795,0.29687 0.39062,0.42188 1.2031,-0.0469 -0.0469,-0.90625 -1.875,-1.3594 -0.4375,-0.42188 -0.1874995,-0.48437 0.8124995,0.0937 0.67188,0.57812 0.71875,-0.71875 1.4531,-0.1875 1.4375,-1.0156 -0.0937,-0.625 1.1094,-1.0625 -0.73438,-0.76563 1.9375,-0.0469 1.6719,0.0469 c 0,0 0.82383003,-0.38046 0.96875003,-0.14062 0.145,0.23994 1.39059997,1.1562 1.39059997,1.1562 l -0.48436997,0.42187 -1.96880003,0.25 -0.48438,0.95313 1.45310003,0.20312 1.0938,-1.1562 1.20309997,-0.0937 0.20313,1.1406 c 0,0 -1.35529997,0.78063 -1.54689997,0.82812 -0.1924,0.0516 -1,0.42188 -1,0.42188 l -0.0625,0.875 -1.29690003,0.14062 -1.3438,-0.23437 -0.625,0.0469 -1.0156,0.8125 0.82813,0.71875 c 0,0 1.199,-0.4817 1.3906,-0.625 0.1916,-0.1432 0.82545,-0.42986 0.96875,-0.1875 0.1442,0.23992 0.95313003,0.90625 0.95313003,0.90625 l 0.67187,1.3125 0.625,0.1875 1.92189997,0.625 c 0,0 1.3594,0.3433 1.3594,0.4375 0,0.0966 -0.14062,-0.82812 -0.14062,-0.82812 l -1.0156,-1.2031 c 0,0 -0.0514,-0.32779 0.28125,-0.23437 0.34058,0.0958 1.1562,0.8125 1.1562,0.8125 0.1416,0.0482 1.1094,0.625 1.1094,0.625 l 0.39062,-1.0469 0.85938,-0.53125 -0.32813,-0.625 -0.48437,-0.53125 -0.53125,-0.625 0.0469,-0.71875 c 0,0 0.13723,-0.11052 0.28125,-0.20312 0.1434,-0.095 0.59008,-0.42358 0.6875,-0.23438 0.0942,0.1924 1.0469,1.4375 1.0469,1.4375 l 0.92187,0.20313 0.42188,-0.73438 c 0,0 1.2031,-0.14295 1.2031,-0.0937 0,0.0484 0.0937,-0.57812 0.0937,-0.57812 l 1.1094,-0.28125 -1.578102,-1.4062 -0.875,-0.42188 -0.67187,0.1875 -0.625,-0.71875 0.67187,-0.625 0.29688,-0.875 -0.76563,-0.76562 -1.2031,-0.23438 -0.29688,-0.625 c 0,0 -1.0113,-0.14127 -1.1562,-0.0469 -0.1458,0.0998 -0.85937,-0.875 -0.85937,-0.875 l -0.53125,-0.70313 z m 39.5470005,7.1562 -1.7344,0.96875 c 0,0 0.86803,0.3709 1.1562,0.5625 0.28824,0.1924 0.85937,-0.1875 0.85937,-0.1875 l 0,0.875 c 0,0 1.5386,0.84997 1.3438,1.1406 -0.1908,0.28742 2.5156,-0.28125 2.5156,-0.28125 l 2.6875,-0.875 0.57812,-1.0469 -1.0625,-0.875 -4.9062,0.57813 -1.4375,-0.85938 z m 25.969,3.2969 c -0.43352,0.13829 -0.89062,0.29687 -0.89062,0.29687 l -1.2812,1.2188 c 0,0 -0.32623,0.60541 -0.39063,0.76563 -0.0668,0.1618 0.0937,1.8594 0.0937,1.8594 0,0 0.77232,0.0106 0.54688,0.23438 -0.22542,0.22304 -0.1875,1.25 -0.1875,1.25 l 0.89062,0.59375 c 0,0 1.1943,0.39317 1.3594,0.35937 0.1538,-0.0314 0.72992,-0.41997 0.82812,-0.48437 0.0894,-0.0628 0.79179,-0.76336 1.0156,-0.73438 0.2238,0.0354 0.80822,-0.60366 0.875,-0.375 0.0628,0.22462 0.18604,1.0263 0.3125,1.2188 0.128,0.1924 0.58961,0.53754 0.78125,0.98438 0.1908,0.45006 0.44266,0.90822 0.375,1 -0.0668,0.0998 -0.51563,0.53125 -0.51563,0.53125 0,0 -0.9477,0.13276 -1.0781,0.26562 -0.1272,0.1264 -0.29401,0.1886 -0.39063,0.125 -0.099,-0.0644 0.32528,-0.51744 0.42188,-0.64062 0.0974,-0.1312 -0.23056,-0.64078 -0.35938,-0.60938 -0.1304,0.0338 -0.24982,-0.2792 -0.125,-0.375 0.1304,-0.0966 0.0937,-0.71875 0.0937,-0.71875 0,0 -0.18623,-0.0963 -0.28125,-0.0625 -0.0966,0.0322 -1.2188,0.48438 -1.2188,0.48438 0,0 -0.60842,0.6384 -0.64062,0.76562 -0.0346,0.132 -0.30489,0.80221 -0.14063,1.2812 0.1594,0.48388 0.54688,1.2656 0.54688,1.2656 0,0 0.42262,0.27661 0.26562,0.40625 -0.1578,0.1272 -0.48437,0.60937 -0.48437,0.60937 l -0.76563,0.0312 c 0,0 -1.3851,0.17314 -1.5156,0.23438 -0.1264,0.066 -1.4666,0.47895 -1.4062,0.60937 0.0678,0.128 -0.29688,1.5 -0.29688,1.5 -0.062,0.0322 -1.4031,1 -1.5625,1 -0.1602,0 -1.1562,0.25 -1.1562,0.25 0,0 -0.45383,1.1902 -0.48437,1.125 -0.032,-0.0652 -1.5,0.70313 -1.5,0.70313 0,0 -1.124,-0.32351 -1.1562,-0.45313 -0.0318,-0.1272 -0.42251,-0.40912 -0.45313,-0.3125 -0.0336,0.0974 0.39063,1.0888 0.39063,1.2812 0,0.1876 0.0663,0.57873 -0.0625,0.45313 -0.1288,-0.1312 -0.77901,-0.32541 -0.90625,-0.39063 -0.1312,-0.0628 -1.2188,-0.0312 -1.2188,-0.0312 l -0.45313,0 c 0,0 -0.54592,0.48805 -0.57812,0.39063 -0.0244,0.0682 -0.0625,0.40625 -0.0625,0.40625 l 0.32812,0.32812 1.1562,0.48438 1.0938,0.67187 0.40625,1.0156 0.48438,0.96875 c 0,0 -0.31544,1.9791 -0.375,2.0781 -0.071,0.0942 -0.75,0.54688 -0.75,0.54688 l -2.0781,-0.0312 c 0,0 -1.0292,-0.2178 -1.125,-0.25 -0.0958,-0.034 -1.5499,0.1905 -1.5781,0.0625 -0.0318,-0.1296 -0.48438,-0.0937 -0.48438,-0.0937 l -0.21875,-0.26563 -0.57812,0 -0.48438,0.54688 -0.70312,0.0312 0,0.57812 c 0,0 0.29782,1.3146 0.26562,1.2188 -0.0318,-0.099 -0.14062,1.5469 -0.14062,1.5469 0,0 -0.67992,1.3937 -0.75,1.5 0.016,0.0418 -0.0469,0.9375 -0.0469,0.9375 l 0.42188,0.67187 0.0625,0.79688 c 0,0 -0.31634,0.73547 -0.1875,0.67187 0.1296,-0.0652 1.1437,0.0335 1.1719,-0.0937 0.032,-0.1272 0.65658,-0.41054 0.75,-0.1875 0.095,0.22382 0.447,-0.0131 0.54688,0.375 0.0892,0.38402 0.44975,0.93623 0.48437,1.0312 0.0314,0.0998 0.28125,0.1875 0.28125,0.1875 l 0.0937,0.26563 -0.1875,0.15625 -0.79687,1.7969 -1.7812,1.25 -1.0469,0.67188 -0.29687,0.79687 -0.4375,0.51563 -0.14063,1 c 0,0 0.1293,1.2465 0.0625,1.3125 -0.062,0.0636 -2.3906,2.2812 -2.3906,2.2812 l -1.2969,0.28125 -0.70312,1.2188 c 0,0 -0.95365,0.89826 -1.0156,1.0625 -0.0668,0.1578 -0.54687,0.76562 -0.54687,0.76562 0,0 0.0322,1.2846 0,1.0938 -0.033,-0.1924 -1.3906,1.0625 -1.3906,1.0625 0,0 -0.2489,1.4652 -0.3125,1.5312 -0.0636,0.0612 -0.69783,1.1884 -0.79687,1.1562 -0.0958,-0.033 -0.20313,0.77743 -0.20313,0.90625 0,0.1272 0.32813,0.5 0.32813,0.5 0,0 0.45377,0.87787 0.48437,0.78125 0.0164,0.0432 0.0312,0.28125 0.0312,0.28125 l -0.45312,0.45313 c 0,0 0.48437,0.73232 0.48437,0.82812 l 0,1.9844 -0.51562,1.0938 -0.26563,1.4219 -0.76562,0.60938 0.0312,0.375 0.67187,0.54687 0.10938,0.60938 -0.20313,0.67187 0,0.67188 0.48438,1.125 c 0,0 0.4823,0.39349 0.57812,0.29687 0.0958,-0.0966 1.0571,0.60511 1.1875,0.82813 0.1288,0.22464 1.3125,1.6371 1.3125,1.7031 0,0.0628 0.1875,0.375 0.1875,0.375 l 0.57813,1.9688 c 0,0 2.795,2.2981 2.8594,2.2031 0.0644,-0.0934 2.9844,2.0938 2.9844,2.0938 0,0 2.3439,-1.1599 2.3125,-1.0625 -0.0346,0.0942 1.9844,-0.0937 1.9844,-0.0937 l 1.2188,0.1875 0.89063,0.42187 3.2812,-1.5 0.64062,-0.5 2.5312,-0.0937 1.2188,0.48438 c 0,0 0.79688,1.1826 0.79688,1.375 0,0.1924 0.48163,1.0663 0.54687,0.9375 0.062,-0.1248 2.8549,-0.24935 2.9531,-0.21875 0.0926,0.0314 1.3125,1.2188 1.3125,1.2188 l -0.0625,1.125 -0.1875,1.9844 -0.39063,0.95313 -0.375,0.875 -0.10937,0.60937 c 0,0 2.8906,4.2342 2.8906,4.2656 0,0.0314 0.73438,1.7656 0.73438,1.7656 l 0.875,2.2031 0.51562,1.25 -0.51562,0.70312 0.82812,2.1562 -0.28125,2.1094 -1.25,2.7344 -0.54687,2.0156 0.15625,2.7031 1.5,3.1094 1.5781,3.5625 0.15625,3.9062 0.71875,1.3438 c 14.306,-13.576 23.219002,-32.768 23.219002,-54.047 0,-3.582 -0.26126,-7.1154 -0.750002,-10.562 l -1.0625,-1.9375 c 0,0 -1.2149,-3.0116 -1.3438,-3.1719 -0.1256,-0.1594 -0.61172,-0.9689 -0.45312,-0.9375 0.1602,0.033 1.3125,-0.125 1.3125,-0.125 0,0 0.33873,0.40837 0.54687,0.65625 -0.41361,-1.8802 -0.8848,-3.7385 -1.4375,-5.5625 -0.0694,0.15248 -0.15013,0.29875 -0.29687,0.39062 -0.38404,0.24234 -0.95952,0.56805 -1.2969,0.32813 -0.3341,-0.24154 -1.6956,-0.18883 -1.8438,-0.14063 -0.1426,0.0484 -1.7747,-0.053 -1.9688,0.28125 -0.1916,0.33816 -1.4261,0.0982 -1.625,0 -0.1916,-0.095 -2.5584,-1.0478 -2.75,-1.0938 -0.1916,-0.0474 -1.3997,-0.57465 -1.5938,-0.71875 -0.1916,-0.1458 -1.3908,-0.29422 -1.4375,-0.4375 -0.049,-0.145 0.10205,-0.34517 -0.0937,-0.29687 -0.1884,0.0444 -1.5896,0.4841 -1.7812,0.625 -0.1956,0.1498 -0.625,0.53125 -0.625,0.53125 0,0 -0.57953,0.58326 -0.53125,1.0156 0.0516,0.43314 0.58221,0.77571 0.39063,1.0156 -0.1916,0.23992 -0.85938,0.51562 -0.85938,0.51562 0,0 -0.73207,-0.66982 -0.96875,-0.76562 -0.24074,-0.0966 -2.5,-0.4375 -2.5,-0.4375 l -0.92187,-1.0469 c 0,0 -1.4332,-0.96732 -1.5781,-1.0156 -0.1458,-0.0476 -1.7413,0.004 -1.9844,-0.1875 -0.24158,-0.1956 -1.0074,-1.2054 -1.3906,-1.1562 -0.38568,0.0476 -0.23791,-0.57606 -0.0937,-0.67188 0.1434,-0.0958 0.57869,-0.91838 0.53125,-1.0625 -0.05,-0.1458 0.24553,-0.96318 -0.23437,-1.2031 -0.4806,-0.24636 -0.15625,-1.0625 -0.15625,-1.0625 0,0 0.48933,-0.0937 0.29687,-0.0937 -0.1924,0 -0.91537,0.0525 -1.1094,-0.1875 -0.1892,-0.24074 -0.2507,-0.345 -0.4375,-0.25 -0.1964,0.0974 -1.3887,0.2983 -1.5312,0.25 -0.1458,-0.0474 -1.3076,0.0937 -1.5,0.0937 -0.1916,0 0.0525,0.049 -0.1875,0 -0.24394,-0.0482 -1.2033,0.38892 -1.25,0.57812 -0.044,0.1924 -1.0105,-0.0442 -1.1562,0 -0.1466,0.0484 -1.5469,0.0469 -1.5469,0.0469 l -2.2969,0.39062 c 0,0 -1.5462,0.77571 -1.5938,1.0156 -0.0484,0.24076 -0.52858,0.62537 -0.67188,0.71875 -0.1426,0.0974 -1.0094,-0.0128 -1.0625,-0.15625 -0.045,-0.144 -1.5938,0.0625 -1.5938,0.0625 0,0 -0.6201,-0.34887 -0.8125,-0.20313 -0.1916,0.1442 -0.1875,-0.625 -0.1875,-0.625 l 0.23438,-0.57812 0.875,-0.57813 2.0625,-0.375 1.0156,-0.67187 0.625,-0.25 0.375,-1 c 0,0 0.72016,-0.15024 0.67188,-0.29688 -0.0474,-0.1442 -0.23438,-0.8125 -0.23438,-0.8125 l 1.3906,-2.1719 1.9844,-0.95313 0.32813,-0.6875 c 0,0 -0.18868,-0.85346 -0.0469,-1 0.1434,-0.145 1.4375,-0.4375 1.4375,-0.4375 l 1.6406,0.53125 c 0,0 0.87086,-0.57525 1.0625,-0.67187 0.1916,-0.0974 1.1094,-0.625 1.1094,-0.625 0,0 0.088,-0.43815 0.28125,-0.39063 0.1924,0.0474 1.0112,-0.13492 1.1094,0.25 0.0958,0.38484 0.8125,1.5781 0.8125,1.5781 l 1.1094,1.1562 1.0625,0.82812 1.2969,0.46875 c 0,0 0.76295,0.67043 0.90625,0.71875 0.1442,0.0466 0.875,0.875 0.875,0.875 l 0.375,0.67188 c 0,0 -0.22942,0.5241 -0.42188,0.76562 -0.1916,0.23752 -0.77693,0.86404 -0.92187,0.8125 -0.145,-0.0442 -1.25,-0.23437 -1.25,-0.23437 l -1.2031,0.14062 c 0,0 -0.19517,0.29131 0.14063,0.53125 0.33652,0.23992 0.72756,0.19899 1.0625,0.39063 0.34216,0.1916 1.2031,0.57812 1.2031,0.57812 0,0 0.57813,0.0911 0.57813,0.23438 0,0.145 0.18902,-0.38301 0.14062,-0.71875 -0.0472,-0.33574 -0.0873,-0.76196 0.25,-0.85938 0.33894,-0.0958 0.85938,-0.0104 0.85938,-0.15625 0,-0.1432 0.15625,-0.32812 0.15625,-0.32812 l 0.42187,-0.53125 -0.0469,-0.32813 0.4375,-0.34375 c 0,0 -0.24184,-0.28731 -0.4375,-0.53125 -0.19,-0.24154 -0.38928,-0.38426 -0.25,-0.625 0.1474,-0.23912 0.6294,-0.58386 0.875,-0.39062 0.23908,0.1916 0.97021,0.28891 0.92187,0.53125 -0.0458,0.23832 -0.004,0.57982 0.0937,0.39062 0.0924,-0.194 0.0469,-0.96875 0.0469,-0.96875 0,0 -0.38145,-0.5298 -0.71875,-0.57812 -0.33334,-0.0498 -1.2148,-0.48231 -1.4531,-0.57813 -0.2391,-0.0966 -0.67187,-0.32812 -0.67187,-0.32812 0,0 0.19045,-0.53268 -0.0937,-0.48438 -0.29144,0.0474 -1.1562,-0.0927 -1.1562,-0.23437 0,-0.1474 -0.86199,-0.82787 -0.90625,-0.96875 -0.0484,-0.1474 -0.82813,-1.2031 -0.82813,-1.2031 0,0 -0.42289,-0.43402 -0.46875,-0.57812 -0.05,-0.145 -0.10652,-0.38241 -0.20312,-0.76563 -0.099,-0.38486 0.96937,-1.3464 0.92187,-1.2031 -0.049,0.1418 0.24266,0.33328 0.4375,0.76562 0.1892,0.43478 0.95026,1.1649 1.0469,1.4531 0.095,0.28742 1.1539,1.0941 1.3906,1.1875 0.24476,0.095 0.39192,0.3865 0.875,0.57812 0.48308,0.1932 0.43854,0.28749 1.0625,0.57813 0.62236,0.28906 0.71992,0.39035 0.8125,0.53125 0.0998,0.1466 0.47768,0.10381 0.625,0.34375 0.1434,0.23912 0.34375,0.29133 0.34375,0.53125 0,0.23912 0.19515,0.23729 0.0937,0.71875 -0.0942,0.48066 -0.2366,0.62295 -0.1875,0.71875 0.0484,0.0982 0.91266,1.875 1.25,1.875 0.33578,0 1.3316,0.39391 1.1875,0.96875 -0.1434,0.57646 0.625,1.3438 0.625,1.3438 0,0 0.64937,0.0352 1.0938,0.10937 0.018,-0.33572 -0.0523,-0.87442 0.3125,-1.0781 0.4283,-0.24072 1.0506,-0.48125 0.95313,-0.71875 -0.0982,-0.23992 -0.19489,-0.66651 -0.57813,-0.95313 -0.38002,-0.28742 -0.76359,-0.44605 -0.85937,-0.92187 -0.0942,-0.48224 -0.24484,-1.1159 0.1875,-0.92188 0.43234,0.1908 0.81914,1.114 1.0156,0.48438 0.1892,-0.62396 0.66428,-1.0512 1,-0.90625 0.3406,0.144 0.97022,0.3857 0.92188,0.57812 -0.049,0.1924 0.4375,1.7344 0.4375,1.7344 0,0 0.18543,0.13967 0.28125,0.85937 0.0958,0.71978 0.71918,0.91553 0.625,1.1562 -0.0974,0.23832 -0.38232,0.38616 0.39062,0.48438 0.76566,0.0966 1.4844,0.22945 1.4844,0.42187 0,0.1932 0.63775,0.29582 0.73437,0.4375 0.0942,0.145 0.66819,0.42799 0.76563,0.14063 0.0958,-0.28582 0.29336,-0.86227 0.4375,-0.76563 0.1442,0.0998 1.3401,0.0979 1.4375,0.48438 0.0748,0.28441 0.54718,0.36096 0.78125,0.42187 -0.85539,-2.2058 -1.8214,-4.3548 -2.875,-6.4531 l -1.7031,-0.42188 -1.0625,-0.53125 -0.57812,-0.625 0.53125,0 -0.1875,-0.76562 0.0937,-0.53125 0.46875,-0.28125 0.23437,-0.92188 c -2.732,-4.6875 -5.9711,-9.0352 -9.625,-13 -0.20744,0.11419 -0.6007,0.39328 -0.75,0.45313 -0.1602,0.0636 -0.63693,0.25507 -0.73437,0.0312 -0.0942,-0.22544 -0.29688,-0.57813 -0.29688,-0.57813 0,0 -0.15191,-0.31455 -0.21875,-0.21875 -0.057,0.0926 -0.42187,0.125 -0.42187,0.125 l -0.82813,0.3125 c 0,0 -0.45269,0.32621 -0.54687,0.39063 -0.099,0.0636 -0.57323,0.0605 -0.76563,0.15625 -0.1916,0.0974 -0.77888,0.58399 -0.9375,0.35937 -0.1626,-0.22304 -0.25506,0.14948 -0.45312,-0.20312 -0.1876,-0.35184 -0.11753,-0.73788 -0.34375,-0.67188 -0.22142,0.0644 -0.73648,0.20009 -0.79688,0.32813 -0.0668,0.128 -0.14164,0.12198 -0.26562,0.25 -0.1288,0.1272 -1.0625,0.23437 -1.0625,0.23437 l 0,-0.0781 1.0625,-0.89063 0.23437,-0.875 c 0,0 0.98587,0.16884 1.0156,0.29688 0.0314,0.1264 0.26364,-0.28874 0.51562,-0.0625 0.25924,0.22382 0.5764,0.19658 0.60938,0.39062 0.028,0.1932 0.21856,0.41009 0.25,0.28125 0.0314,-0.1288 0.0312,-0.54687 0.0312,-0.54687 0,0 -0.27488,-0.15016 -0.4375,-0.25 -0.1618,-0.095 -0.12975,-0.39177 0.0312,-0.48438 0.1578,-0.0958 0.60477,-0.36382 0.73437,-0.26562 0.1288,0.0934 0.70313,-0.125 0.70313,-0.125 0,0 0.0934,-0.18941 0.15625,-0.28125 0.0668,-0.0998 0.39062,-0.96875 0.39062,-0.96875 0,0 -0.23405,-0.10078 -0.29687,-0.39063 -0.0124,-0.0553 -0.002,-0.13231 0.0156,-0.21875 -2.5409,-2.4197 -5.2626,-4.6586 -8.125,-6.7031 z m -71.8590005,0.9375 c -0.0966,0.0998 -0.4375,0.4375 -0.4375,0.4375 l -3.1719,-0.29688 -1.1094,1.9219 -0.23438,1.0156 c 0,0 -1.7406,1.7405 -1.9531,1.875 0.1272,-0.037 0.9375,0.76563 0.9375,0.76563 l -0.71875,1.7344 -2.7499995,1.5938 -1.3438,0.1875 c 0,0 -0.81395,2.9811 -0.76563,3.1719 0.0474,0.194 -1.1094,0.71875 -1.1094,0.71875 l -0.8125,0.57812 -0.34375,-1.0469 c 0,0 -0.36909,-0.81113 -0.51563,-1.0156 0.21498,0.0886 1,0.1875 1,0.1875 l 0.14063,-0.67187 -0.76563,0.0469 0.32813,-1.1094 0.73437,-1.2031 -2.5156,-0.1875 -0.5625,-0.67187 -1.2656,-0.1875 -0.0937,-0.53125 -0.85937,-0.53125 -1.0625,-0.48438 -1.1562,0.14063 -0.0469,-1 0.28125,-0.96875 -1,-0.17188 c -14.869,13.363 -24.327,32.634 -24.703,54.109 l 1.1719,0.28125 1.8906,-0.57813 1.2031,0.57813 1.8281,2.1094 1.875,0.48438 1.9219,0.67187 0.90625,0 0.25,1.1094 c 0,0 0.87008,1.1059 1.0625,1.25 0.1908,0.144 0.0469,1.3906 0.0469,1.3906 l 0.8125,0.4375 0.95312,1.0156 0.625,0.57812 0.6875,0.76563 0.42188,-0.29688 0.875,0.25 1.25,1.1562 0.8125,-0.48437 -0.23438,-0.92188 0.76563,-0.76562 0.67187,0 0.71875,0.57812 -0.0469,0.67188 0.875,1.3906 0.0469,3.9062 -0.78125,1.25 -1.0469,0.71875 -0.0469,1.1562 -1.1094,0.4375 -0.4375,1.5312 -0.67188,1.3438 0.14063,1.1562 0.96875,0.875 -0.875,0.90625 -0.625,0.92188 0.57812,1.8281 c 0,0 0.28125,0.90992 0.28125,0.8125 0,-0.0958 0.92188,0.625 0.92188,0.625 l 1.6875,3.3594 1.625,2.375 c 0,0 2.3892,4.7747 2.4375,4.8125 0.71736,0.52736 5.9375,4.2969 5.9375,4.2969 l 0.90625,4.6875 0.25,9.875 0.76562,2.8281 -0.0781,1.2969 c 4.0462,2.7927 8.3815995,5.1976 12.9529995,7.1562 0.39252,5.4e-4 1.1094,0.0781 1.1094,0.0781 l 2.18750003,-0.57813 c 0,0 0.82924,-1.4783 0.76562,-1.7344 -0.0644,-0.25602 -0.0625,-1.0938 -0.0625,-1.0938 0,0 -0.004,-0.57219 -0.51562,-0.64063 -0.51608,-0.062 -0.51261,-0.24632 -0.64063,-0.76562 -0.1304,-0.51124 -0.51562003,-1.0938 -0.51562003,-1.0938 l -0.64063,0.125 0.57813,-0.5625 1.28120003,0.95312 1.92189997,0.32813 1.4844,-1.4844 1.0156,-2.5 0.45313,-1.8594 0.96875,0 1.0156,-1.8594 0.39063,-1.7344 -0.32813,-2.125 0.45313,-0.76563 3.3438005,-2.2344 2.5,-0.84375 0.82812,-0.64063 c 0,0 1.2812,-1.7294 1.2812,-1.9219 0,-0.1924 0.51563,-2.6875 0.51563,-2.6875 0,0 0.58162,-2.949 0.51562,-3.1406 -0.062,-0.1956 0.1304,-2.7637 0,-2.8281 -0.1288,-0.0628 0.0625,-0.76563 0.0625,-0.76563 l 2.4375,-3.4688 1.1562,-2.625 c 0,0 0.83277,-1.3533 0.70313,-1.6094 -0.1304,-0.25682 -0.82813,-2.4375 -0.82813,-2.4375 0,0 -1.5425,-0.32319 -1.6094,-0.51563 -0.0636,-0.1916 -2.6896,-2.5019 -2.75,-2.4375 -0.0684,0.0628 -1.09,-1.0276 -1.2188,-0.70312 -0.1256,0.32044 -2.125,0.32812 -2.125,0.32812 l -2.1094,-0.51562 c 0,0 -0.8939205,0.63506 -0.7031205,0.375 0.1924,-0.25602 0.0636,-1.7897 0,-1.5312 -0.0636,0.25362 -3.2188,-1.3438 -3.2188,-1.3438 l -1.0938,0.95312 0,-1.2188 -1.6562,-1.0156 0.1875,-1.3594 -0.76563,-0.64062 c 0,0 -0.1231,0.1897 -0.1875,0.0625 -0.0636,-0.1272 -0.51562,-2.6875 -0.51562,-2.6875 l -2.43749997,-1.9844 -2.95310003,-0.14062 -2.7031,-1.4688 -0.57813,-1.3438 c 0,0 -1.5312,-0.71301 -1.5312,-0.90625 0,-0.1916 -0.44608,-0.0582 -0.57812,-0.125 -0.1248,-0.062 -0.0625,-0.70313 -0.0625,-0.70313 l -0.70313,-0.57812 -0.26562,-0.17188 -0.6249995,-0.1875 -0.375,-0.54687 c 0,0 1.3940995,-0.61243 1.2499995,-0.5625 -0.141,0.0452 -3.1249995,0.46875 -3.1249995,0.46875 l -0.29688,0.57812 -1.3906,-0.71875 -2.3594,-0.14062 c 0,0 -1.6889,-0.66776 -1.6406,-0.85938 0.0508,-0.1932 -0.53125,-0.92187 -0.53125,-0.92187 0,0 -0.37215,0.9198 -0.46875,1.0156 -0.095,0.0958 -1.2969,1.0938 -1.2969,1.0938 l 0.0937,1.5469 -0.82812,-0.85938 0.57812,-0.82812 0,-1.1562 c 0,-0.1474 0.73438,-0.46875 0.73438,-0.46875 l -0.29688,-0.625 c 0,0 -0.85937,0.23008 -0.85937,0.375 0,0.1432 -1.1562,0.82812 -1.1562,0.82812 l -1.4062,0.51563 -0.60938,0 c 0,0 -0.63229,1.0118 -0.78125,1.0625 -0.1424,0.049 -0.0937,0.96875 -0.0937,0.96875 0,0 -1.544,1.7229 -1.6406,1.5312 -0.0958,-0.1916 -1.7188,-1.5312 -1.7188,-1.5312 l -1.9375,0.23437 -1.0938,0.57813 -1.3594,-0.90625 -1.0469,-1.6406 0.0937,-1.9219 0.57812,-2.125 0.23438,-1.3906 -1.4375,-1.0625 c 0,0 -2.9375,0.23789 -2.9375,0.0937 0,-0.1418 -1.5968,0.0536 -1.5469,-0.0937 0.046,-0.1424 0.57813,-1.0566 0.57813,-1.2031 0,-0.145 0.39062,-1.25 0.39062,-1.25 l 0.625,-1.25 0.8125,-2.3906 0.48438,-0.82812 -2.4062,-0.14063 -1.4375,0.57813 -0.8125,2.4062 -4.0938,1.0938 -1.0156,-0.76563 c 0,0 -0.0985,0.4439 -0.0469,0.20313 0.045,-0.23994 -1.25,-1.9375 -1.25,-1.9375 l -0.625,-2.3438 c 0,0 1.6453,-4.8646 1.5938,-4.7656 -0.0476,0.0942 0.0469,-1.7812 0.0469,-1.7812 l 5.1406,-3.375 1.9688,0.29688 0.48437,0.46875 1.2031,-0.1875 1.2031,-1.2031 1.5469,0.1875 1.4844,-0.28125 0.92188,1.0156 1.3438,-0.53125 0.71875,0.76562 0.4375,0.48438 0,0.8125 -0.34375,0.78125 0.34375,1.7188 0.95312,1.3594 0.625,0.23438 0.76563,-2.1094 -0.14063,-1.9844 -0.32812,-1.5781 0,-1.1562 1.9688,-2.4062 2.5469,-1.8281 2.0156,-1.1562 1.7812,-1.9219 -0.0937,-1.8281 0.78125,-0.14063 0.75,-1.6406 0.78125,0.0937 1.4844,-1.875 2.5,-0.85938 1.5469,-0.29687 0.48437,-0.51563 -0.57812,-0.48437 1.2031,-1.7812 3.7968995,-1.5 2.3125,-0.67188 -1.875,1.2031 0.375,0.92187 1.4062,-0.39062 1,-0.625 2.65620003,-0.71875 c 0,0 0.41802,-0.70419 0.51562,-0.82813 -0.0926,0.23992 1.3594,-0.23437 1.3594,-0.23437 l -0.29688,-0.57813 0.10938,-0.76562 -0.78125,0.28125 -1.15620003,1.25 -1.875,-0.0937 -0.85938,-1.2969 0.8125,-1.1094 c 0,0 0.81315,-1.6303 0.76563,-1.5312 -0.0492,0.0934 -1.2969,-0.39063 -1.2969,-0.39063 l -1.875,0.67188 c -0.1916,0 -1.9686,1.0652 -1.9219,0.92187 0.0492,-0.1442 -0.90625,0.53125 -0.90625,0.53125 l 2.4375,-1.9688 1.0156,-0.15625 1.1562,-1.0625 5.5312,0 1.875,-0.375 2.5,-1.3438 0.20313,0.23438 -1.0625,1.0156 -1.2969,1.3438 -1.25,1.3438 -0.625,0.8125 1.9688,0.0937 c 0,0 1.541,0.0388 1.6875,0 0.1924,-0.0482 0.23438,0.67188 0.23438,0.67188 l 0.8125,-0.5625 0.4375,1.0938 1.4531,-1.0938 -0.4375,-1.25 0.39063,-1.1719 -1.6875,0.0625 0,-0.625 c 0,0 -0.62276,-0.72 -0.67188,-0.625 -0.0498,0.0974 0.95537,-0.81457 0.90625,-0.71875 -0.0474,0.0966 -0.4375,-0.48437 -0.4375,-0.48437 l 1.1562,-1.4531 -0.5625,-1.625 -0.20312,-0.82812 -1.4844,-0.71875 -0.53125,-0.71875 -0.6875,-0.53125 0.53125,-1.25 -0.23437,-0.90625 c 0,0 -0.43608,-2.9856 -0.48438,-2.8906 -0.0506,0.0974 -2.0156,1.6406 -2.0156,1.6406 l -2.01559997,1 -1.0625,-0.90625 0.0937,-1.2031 0.92188,-0.875 -1.50000003,-0.46875 -0.0937,-0.39062 c 0,0 -1.3425,-1.345 -1.4375,-1.25 z m 62.3750005,3.9062 -0.45313,0.1875 -0.42187,0.625 c 0,0 -0.38986,0.0958 -0.54688,0 -0.1586,-0.0966 -0.48137,9.5e-4 -0.60937,-0.0312 -0.128,-0.0362 -0.42188,0.375 -0.42188,0.375 0,0 -0.4329,0.48422 -0.5625,0.51562 -0.128,0.0322 -0.57907,0.54673 -0.54687,0.57813 0.0346,0.0322 0.0625,0.45312 0.0625,0.45312 0,0 -0.0898,0.15529 -0.25,0.1875 -0.1594,0.0314 0.125,0.57813 0.125,0.57813 l 0.39062,0.1875 c 0,0 -0.23215,0.23292 -0.35937,0.20312 -0.1304,-0.0354 -0.42701,0.31205 -0.20313,0.40625 0.22536,0.0934 0.32832,0.23393 0.29688,0.32813 -0.028,0.0998 0.48437,0.15625 0.48437,0.15625 l 0.40625,-0.0937 -0.28125,0.45312 c 0,0 0.0613,0.27743 0.15625,0.40625 0.099,0.128 0.42188,0 0.42188,0 0,0 0.76275,-0.12595 0.85937,-0.0937 0.0934,0.0306 -0.0312,0.32813 -0.0312,0.32813 l 0.29688,0.4375 c 0,0 0.1553,0.65293 0.1875,0.84375 0.0346,0.1956 -0.25,0.125 -0.25,0.125 0,0 -0.61556,0.0907 -0.75,0.0625 -0.128,-0.0322 -0.36991,0.22915 -0.59375,0.48437 -0.22622,0.26166 0.0312,0.15625 0.0312,0.15625 l 0.46875,0 c 0,0 0.0329,0.32029 0.0625,0.45313 0.0292,0.128 -0.37442,0.25095 -0.5,0.21875 -0.128,-0.0306 -0.71875,0.26562 -0.71875,0.26562 l 0.0312,0.46875 0.71875,0.0781 0.70312,0.0937 0.125,0.21875 c 0,0 -0.4525,0.0966 -0.57812,0 -0.128,-0.0958 -0.51563,0.51562 -0.51563,0.51562 l -0.34375,0.375 -0.75,0.57813 0.42188,0.20312 0.25,-0.32812 0.65625,0.0312 0.6875,-0.0937 c 0,0 0.43463,-0.51563 0.53125,-0.51563 0.0934,0 1.0781,-0.0312 1.0781,-0.0312 0,0 0.81041,-0.15815 0.90625,-0.0937 0.0958,0.0644 0.72827,0.18813 0.82813,0.21875 0.0942,0.0314 1.3438,-0.34375 1.3438,-0.34375 0,0 0.26452,-0.41887 0.32812,-0.54687 0.0668,-0.128 -0.35726,-0.24713 -0.45312,-0.34375 -0.0958,-0.0966 0.3216,-0.23231 0.51562,-0.32813 0.1908,-0.0958 0.26194,-0.45077 0.35938,-0.60937 0.0926,-0.1586 -0.13968,-0.48473 -0.17188,-0.57813 -0.0308,-0.099 -0.48221,-0.0639 -0.60937,-0.0937 -0.128,-0.033 -0.67188,0.0312 -0.67188,0.0312 l 0.0312,-0.64062 c 0,0 -1.501,-2.0604 -1.4688,-2.1562 0.032,-0.0934 -0.35538,-0.7046 -0.51562,-0.73438 -0.1602,-0.0322 -0.35448,-0.16579 -0.54688,-0.42187 -0.1908,-0.25442 0.26563,-0.57813 0.26563,-0.57813 0,0 0.52857,-0.57592 0.59375,-0.70312 0.0644,-0.1288 -0.062,-0.51468 -0.15625,-0.54688 -0.0974,-0.0314 -1.2188,0.0312 -1.2188,0.0312 0,0 -0.31105,-0.24795 -0.28125,-0.34375 0.033,-0.1006 0.35572,-0.125 0.45312,-0.125 0.091,0 0.66888,-1.124 0.79688,-1.1562 0.1272,-0.0346 -0.0937,-0.32812 -0.0937,-0.32812 z m -5.2031,4.6875 -0.51562,0.15625 -0.28125,0.42187 c 0,0 -0.48483,0.50527 -0.39063,0.40625 0.099,-0.0926 0.35728,-0.0813 0.29688,0.0781 -0.0668,0.1594 -0.32813,0.3125 -0.32813,0.3125 l -0.375,0 -0.32812,-0.1875 -0.48438,0.0625 -0.15625,0.28125 0.1875,0.45312 -0.3125,0.32813 0.375,0.3125 0.39063,0.0937 -0.0625,0.45312 -0.42188,0.1875 -0.54687,0.35938 -0.15625,0.60937 0.48437,0.28125 0.76563,0.17188 0.79687,-0.20313 0.6875,-0.375 0.1875,-0.1875 1.125,-0.0781 0.125,-0.46875 0.25,-0.48438 0,-1.3906 0.60938,-0.34375 -0.1875,-0.89063 -0.96875,-0.23437 -0.76563,-0.125 z m -86.094,40.719 c 0,-0.1006 -1.6406,1.2969 -1.6406,1.2969 l 0,0.14063 c 0,0 0.14832,0.66758 0.20312,0.8125 0.045,0.1432 1.1073,-0.77301 1.2031,-1.1562 0.0958,-0.38324 0.85525,-0.48153 1.0469,-0.57813 0.1956,-0.0934 0.29114,0.39063 0.48438,0.39063 0.1948,0 1.0625,0.29687 1.0625,0.29687 l 1.7344,0.5625 0.67188,0.625 c 0,0 0.28125,1.5387 0.28125,1.7344 0,0.194 1.3125,0.0937 1.3125,0.0937 l 2.5469,-0.23438 c -4.6e-4,-4.4e-4 0.81715,-0.48008 0.76563,-0.625 -0.0442,-0.1426 -0.77221,-0.375 -1.1562,-0.375 -0.38484,0 -1.7816,-1.3516 -1.875,-1.6406 -0.0998,-0.28904 -3.2188,-1.0625 -3.2188,-1.0625 0,0 -3.4219,-0.18703 -3.4219,-0.28125 z m 10.969,3.8906 c -0.38164,0 0,0.4375 0,0.4375 l -0.14062,1.3906 -1.5938,0 -0.0469,0.14062 c 0,0 -0.4375,0.14854 -0.4375,0.4375 0.001,0.28822 0.58499,0.18543 0.82813,0.28125 0.23752,0.0958 0.61766,-0.0469 0.8125,-0.0469 0.1948,0 0.82812,-0.14063 0.82812,-0.14063 0,0 0.1875,0.43321 0.1875,0.57813 0,0.1416 1,-0.0427 1,-0.1875 0,-0.145 0.25,-0.53125 0.25,-0.53125 l 1.2031,-0.25 c 0,0 1.6379,0.0469 1.7812,0.0469 0.145,0 0.24444,-0.28354 -0.0469,-0.8125 -0.28582,-0.53058 -1.1201,-0.62996 -1.3125,-1.0156 -0.1924,-0.38162 -1.1022,-0.1376 -1.3438,0 -0.23992,0.1458 -1.5815,-0.32813 -1.9688,-0.32813 z"
         id="path3089" />
      <g
         transform="matrix(1.9393659,0,0,1.8527139,229.25503,303.05637)"
         id="g45142"
         style="clip-rule:evenodd;fill-rule:evenodd;image-rendering:optimizeQuality;shape-rendering:geometricPrecision;text-rendering:geometricPrecision">
        <g
           id="Camada_x0020_1">
          <g
             id="_171993512">
            <path
               style="fill:#d7cf65;fill-opacity:1;stroke:#373435;stroke-width:0.70560002"
               id="_171992312"
               d="m -100.68244,101.94166 20.644304,-12.531618 c 1.928997,-1.170945 3.891999,-0.161862 4.922228,1.873629 l 2.97176,7.447146 c 0.848912,2.127333 0.256208,3.388833 -1.728362,4.464743 l -9.572043,5.18925 c -0.739636,0.40101 -0.628304,0.64799 -0.618988,1.49023 0.04814,4.31105 -0.942168,7.24893 -2.3687,9.98248 -0.302715,-3.86648 -1.728102,-5.96385 -3.971392,-6.77229 -0.842158,-0.3035 -1.093148,-0.33475 -1.839581,0.0699 l -2.51964,1.36608 c -1.984673,1.07591 -3.643654,-0.60997 -4.704052,-2.63021 l -3.137354,-5.60922 c -1.06039,-2.02026 -0.003,-3.16019 1.92136,-4.3405 z"
               class="fil0 str0" />
            <path
               style="fill:#00a859;stroke:#373435;stroke-width:0.70560002"
               id="_171992576"
               d="m -171.08526,153.68167 0.53617,-16.35883 c 0.0836,-2.55153 1.6661,-5.65535 5.15549,-6.02047 l 4.58043,-0.47928 c 2.2756,0.35976 7.29079,1.68352 6.89267,3.88373 l -0.0994,8.21295 c -0.16296,0.9005 -0.23584,0.84984 0.51378,1.40032 3.48787,2.56097 5.6844,4.56418 6.94952,7.37329 -3.45455,-2.3125 -6.162,-2.80619 -8.28123,-1.37057 -0.7393,0.50109 -0.66657,0.94918 -0.82517,1.78851 l -0.46354,2.4521 c -0.41527,2.19712 -2.5407,1.39863 -4.80797,1.82115 l -7.93189,1.47816 c -2.26735,0.42254 -2.4963,-1.96335 -2.21887,-4.18165 z"
               class="fil1 str0" />
            <path
               style="fill:#4e373f;fill-opacity:1;stroke:#000000;stroke-width:0.70560002;stroke-opacity:1"
               id="_171992168"
               d="m -108.86572,228.72003 -20.329,2.1901 c -2.2424,0.24158 -3.63759,-1.8423 -3.78689,-4.1222 l -0.17803,-6.74007 c -0.0603,-2.28448 1.671,-4.4009 3.914,-4.521 l 10.385,-0.5558 c 0.8691,-0.0465 1.0523,0.1463 1.4646,-0.6661 2.0145,-3.9715 3.4695,-5.5221 6.0926,-7.4254 -1.6778,3.7205 -1.6472,5.4739 -0.0841,6.9835 0.5568,0.5376 0.7214,0.6389 1.487,0.6039 l 3.1491,-0.1441 c 2.2426,-0.1026 2.58802,3.18222 2.3344,5.4583 l -0.64818,5.81707 c -0.25362,2.27618 -1.5581,2.8804 -3.8005,3.122 z"
               class="fil2 str0" />
            <path
               style="fill:#ed3237;stroke:#373435;stroke-width:0.70560002"
               id="_171993416"
               d="m -57.476688,203.81268 -6.693753,20.36763 c -0.732323,2.22817 -5.154966,2.84642 -5.154966,2.84642 l -5.540716,-1.65647 c -2.147902,-0.4863 -3.532565,-2.61856 -2.871012,-4.86567 l 3.217322,-10.92722 c 0.201336,-0.68424 0.202295,-0.61661 -0.272972,-1.08013 -3.040997,-2.96594 -4.283767,-5.8258 -5.155853,-8.83988 2.795472,1.91835 6.566714,5.85683 8.140288,0.64885 l 0.706101,-2.33702 c 0.677745,-2.24281 3.857525,-1.95471 5.901453,-1.11562 l 6.120364,2.5124 c 2.128872,0.5541 2.336179,2.21866 1.603967,4.44693 z"
               class="fil3 str0" />
            <path
               style="fill:#00afef;stroke:#373435;stroke-width:0.80934787"
               id="_171993440"
               d="m -49.290548,160.13204 19.996745,14.90105 c 2.134998,1.59095 0.371016,2.92247 -1.170315,4.94015 l -3.735764,4.89029 c -1.541331,2.01767 -4.167071,2.63645 -6.321487,1.07722 l -9.831328,-7.11528 c -0.972354,-0.70373 -0.904069,-0.56652 -1.927214,-0.0885 -4.173052,1.9502 -7.450274,2.60089 -10.871854,2.2963 3.186703,-2.22776 8.886853,-5.42899 4.06041,-9.31191 -1.604186,-1.29054 -3.2858,-1.29893 -2.30611,-3.98364 0.427204,-1.1707 1.009569,-2.58125 1.880148,-3.36081 l 4.875493,-4.36578 c 1.431612,-2.10746 3.216838,-1.46994 5.351728,0.12099 z"
               class="fil4 str0" />
            <path
               class="fil4 str0"
               d="m -42.573794,125.61551 c 1.777146,1.52761 11.854953,10.28229 9.938863,11.26718 l -5.095658,2.61923 c -1.91609,0.98489 -3.692,2.2617 -5.6008,0.9241 l -8.7105,-6.1039 c -0.8615,-0.6037 -0.801,-0.486 -1.7075,-0.0759 -3.6973,1.673 -7.791428,4.12234 -10.822928,3.86104 2.8234,-1.9111 10.254756,-5.91806 5.978556,-9.24906 -2.0432,-3.4174 -4.101728,-1.74468 -3.233728,-4.04778 0.3785,-1.0043 0.832004,-2.3045 1.6658,-2.8831 l 7.085347,-4.91677 c 2.885119,0.42532 7.482779,6.00921 10.502548,8.60496 z"
               id="path45151"
               style="fill:#5f53c9;fill-opacity:1;stroke:#353437;stroke-width:0.70560002;stroke-opacity:1" />
            <path
               class="fil3 str0"
               d="M -129.86894,96.436972 -148.9822,103.88 c -2.09094,0.8143 -2.59749,5.50792 -2.59749,5.50792 l 1.66065,5.83778 c 0.49666,2.26577 2.53397,3.6947 4.64402,2.95501 l 10.26079,-3.59732 c 0.64252,-0.22511 0.57865,-0.22495 1.02456,0.27018 2.85337,3.16816 5.57519,4.43412 8.43615,5.30492 -1.85999,-2.92646 -5.64432,-6.85083 -0.7547,-8.6079 l 2.1942,-0.78841 c 2.10571,-0.75676 1.7782,-4.11858 0.95036,-6.26812 l -2.47891,-6.436588 c -0.56032,-2.244453 -2.1355,-2.434906 -4.22655,-1.620726 z"
               id="path45153"
               style="fill:#5fd8d2;fill-opacity:1;stroke:#373435;stroke-width:0.70560002" />
            <path
               class="fil0 str0"
               d="m -165.09612,182.11339 -3.53465,24.2162 c -0.33966,2.32694 1.27136,3.89883 3.4364,4.17593 l 9.50838,1.32916 c 2.1621,0.30226 3.07452,-0.97823 3.30021,-3.32709 l 1.08839,-11.32932 c 0.0841,-0.87545 0.34187,-0.85532 1.08625,-1.15206 3.8103,-1.5185 6.03528,-3.56277 7.92205,-5.96324 -3.51165,1.10585 -5.87468,0.46136 -7.40083,-1.45835 -0.57291,-0.72068 -0.69158,-0.95698 -0.60668,-1.84042 l 0.28659,-2.98225 c 0.22563,-2.34901 -1.86021,-3.37346 -4.02279,-3.68584 l -7.94302,-1.45546 c -2.16259,-0.3124 -2.78121,1.14548 -3.12078,3.47241 z"
               id="path45155"
               style="fill:#ff9b12;fill-opacity:1;stroke:#373435;stroke-width:0.70560002" />
            <g
               id="text45157"
               style="font-style:normal;font-weight:normal;font-size:5.76892471px;line-height:125%;font-family:sans-serif;letter-spacing:0px;word-spacing:0px;fill:#000000;fill-opacity:1;stroke:none;stroke-width:1px;stroke-linecap:butt;stroke-linejoin:miter;stroke-opacity:1"
               transform="matrix(0.74655185,0.62107801,-0.48198476,0.93851467,0,0)">
              <path
                 id="path45248"
                 style="font-style:normal;font-variant:normal;font-weight:bold;font-stretch:normal;font-family:sans-serif;-inkscape-font-specification:'sans-serif Bold';fill:#ffffff;fill-opacity:1"
                 d="m 30.586281,155.66498 -0.08732,0.5521 q -0.946464,-0.25915 -2.197149,-0.25915 -0.399994,0 -0.721116,0.0338 l 0.04225,-0.5521 0.495767,-0.006 q 1.199981,0 2.467567,0.23099 z m 0.594357,3.73233 q -1.402795,0.12676 -2.059123,0.12676 -1.098574,0 -1.521103,-0.21971 -0.422529,-0.22254 -0.422529,-0.71549 0,-0.39999 0.577456,-1.12392 l 0.507035,0.28168 q -0.571822,0.58309 -0.571822,0.87605 0,0.37464 1.397161,0.37464 0.707031,0 1.994335,-0.16056 l 0.09859,0.56055 z" />
              <path
                 id="path45250"
                 style="font-style:normal;font-variant:normal;font-weight:bold;font-stretch:normal;font-family:sans-serif;-inkscape-font-specification:'sans-serif Bold';fill:#ffffff;fill-opacity:1"
                 d="m 37.231249,158.52409 q -0.557738,0.68731 -0.881677,0.88731 -0.321121,0.19718 -0.628159,0.19718 -0.338023,0 -0.543654,-0.24507 -0.20563,-0.24788 -0.20563,-0.63098 0,-0.3014 0.104224,-0.73801 0.06197,-0.25915 0.06197,-0.38028 0,-0.25915 -0.247883,-0.25915 -0.19718,0 -0.487316,0.15211 -0.290137,0.15211 -0.518302,0.40563 -0.228166,0.25352 -0.461965,0.72675 l -0.425345,0.85351 -0.473233,-0.2169 2.146446,-4.19994 0.4845,0.23662 -0.929563,1.74645 0.01408,0.0113 q 0.298587,-0.23662 0.661961,-0.23662 0.34084,0 0.557738,0.20845 0.216898,0.20845 0.216898,0.5352 0,0.21127 -0.08451,0.60563 -0.07887,0.38027 -0.07887,0.57745 0,0.14366 0.0676,0.23098 0.07042,0.0873 0.185913,0.0873 0.416895,0 1.033787,-0.92957 l 0.430979,0.37465 z" />
              <path
                 id="path45252"
                 style="font-style:normal;font-variant:normal;font-weight:bold;font-stretch:normal;font-family:sans-serif;-inkscape-font-specification:'sans-serif Bold';fill:#ffffff;fill-opacity:1"
                 d="m 39.873461,158.16071 q -0.307037,0.68732 -0.5014,1.44787 l -0.380276,0 q -0.461965,-0.87605 -0.461965,-2.15772 0,-1.0704 0.318305,-2.38024 l 0.560555,0.17746 q -0.369009,1.15491 -0.369009,2.2225 0,0.72393 0.112675,1.14646 l 0.01408,0 q 0.140843,-0.38591 0.259151,-0.59435 l 0.44788,0.13802 z m 2.602777,-2.58306 -0.06761,0.53521 q -0.371825,-0.0676 -1.016885,-0.0676 -0.535203,0 -1.22815,0.11549 l -0.06479,-0.54365 q 0.847874,-0.0873 1.28167,-0.0873 0.740834,0 1.095758,0.0479 z m 0.346473,3.24221 -0.126758,0.58309 q -0.808438,0.062 -1.315473,0.062 -0.839423,0 -1.13801,-0.13803 -0.298587,-0.13803 -0.298587,-0.61689 0,-0.23943 0.06479,-0.50704 l 0.540836,0.1155 q -0.09296,0.27323 -0.09296,0.39154 0,0.13803 0.14366,0.19436 0.143659,0.0535 0.619708,0.0535 0.380276,0 1.602792,-0.13802 z" />
              <path
                 id="path45254"
                 style="font-style:normal;font-variant:normal;font-weight:bold;font-stretch:normal;font-family:sans-serif;-inkscape-font-specification:'sans-serif Bold';fill:#ffffff;fill-opacity:1"
                 d="m 45.55788,157.33537 q 0.68168,-0.2338 1.250685,-0.2338 0.701398,0 1.152095,0.32958 0.453514,0.32957 0.453514,0.90984 0,0.63098 -0.473232,0.98872 -0.473232,0.35492 -1.419696,0.35492 -0.749284,0 -1.585891,-0.21971 l 0,-0.61689 q 0.84224,0.3352 1.642228,0.3352 0.642243,0 0.983083,-0.22816 0.343657,-0.22817 0.343657,-0.60281 0,-0.29859 -0.298587,-0.51549 -0.29577,-0.21689 -0.771819,-0.21689 -0.861959,0 -1.771804,0.52393 l -0.383092,-0.28169 q 0.388726,-0.56055 0.659144,-1.31547 l -0.180278,0 q -0.216898,0 -0.743651,-0.0225 l -0.04507,-0.56056 q 0.377459,0.0704 1.140828,0.0704 0.185912,-0.50703 0.312671,-1.07885 l 0.507034,0.17183 q -0.138026,0.56055 -0.253517,0.87604 1.41688,-0.0592 2.135178,-0.23662 l 0.04507,0.53802 q -0.839424,0.14085 -2.340809,0.20845 -0.177462,0.43661 -0.357741,0.82252 z" />
              <path
                 id="path45256"
                 style="font-style:normal;font-variant:normal;font-weight:bold;font-stretch:normal;font-family:sans-serif;-inkscape-font-specification:'sans-serif Bold';fill:#ffffff;fill-opacity:1"
                 d="m 54.481686,158.59451 -0.34084,0.51267 q -0.34084,-0.24507 -0.88731,-0.49577 -0.02535,0.54929 -0.28732,0.83661 -0.259151,0.28732 -0.729566,0.28732 -0.490133,0 -0.797171,-0.25352 -0.30422,-0.25634 -0.30422,-0.64506 0,-0.42253 0.366191,-0.68732 0.366192,-0.26478 0.873226,-0.26478 0.233799,0 0.377459,0.0282 l 0,-1.22252 q -1.022519,0 -1.605609,-0.0451 l 0.0169,-0.54928 q 0.509852,0.0817 1.242235,0.0817 0.132392,0 0.346473,-0.0113 l 0,-1.06759 0.523936,0 0,1.03097 q 0.315488,-0.0169 0.918295,-0.13239 l 0,0.56055 q -0.371825,0.0563 -0.918295,0.093 l 0,1.37181 q 0.59999,0.20563 1.205615,0.57182 z m -1.760536,-0.13239 q -0.154928,-0.0535 -0.338023,-0.0535 -0.29577,0 -0.515485,0.12675 -0.219715,0.12676 -0.219715,0.31268 0,0.17182 0.169011,0.27041 0.169012,0.0986 0.414078,0.0986 0.247884,0 0.357741,-0.16901 0.112675,-0.17183 0.132393,-0.5859 z m -1.521104,-0.21972 q -0.281685,0.69013 -0.445063,1.43096 l -0.478866,0 q -0.323939,-0.7859 -0.323939,-1.94363 0,-1.16618 0.318305,-2.58024 l 0.571823,0.15774 q -0.369009,1.06196 -0.369009,2.42814 0,0.52393 0.0507,0.92111 l 0.01127,0 q 0.118308,-0.36901 0.214081,-0.58027 l 0.450697,0.16619 z" />
            </g>
            <g
               id="text45161"
               style="font-style:normal;font-weight:normal;font-size:8.47343159px;line-height:125%;font-family:sans-serif;letter-spacing:0px;word-spacing:0px;fill:#000000;fill-opacity:1;stroke:none;stroke-width:1px;stroke-linecap:butt;stroke-linejoin:miter;stroke-opacity:1"
               transform="matrix(0.23799082,-0.97984173,0.96167622,0.24248629,0,0)">
              <path
                 id="path45259"
                 style="fill:#ffffff;fill-opacity:1"
                 d="m -231.92789,-113.18276 q -0.11998,0.47581 -0.42201,1.27019 l -0.2979,0.78197 0,5.39106 -0.67853,0 0,-4.39808 q -0.26894,0.47581 -0.69509,0.86059 l -0.6413,-0.32686 q 1.34466,-1.13365 2.11008,-3.8147 l 0.62475,0.23583 z m 4.9649,1.18744 q -0.17377,0.93506 -0.59992,1.90735 l -0.59165,-0.23583 q 0.10343,-0.20687 0.36409,-1.02608 l -1.35707,0 0,4.69183 q 0,0.21929 -0.14895,0.44271 -0.14895,0.22342 -0.31858,0.3103 -0.1655,0.0869 -0.56269,0.0869 -0.19446,0 -0.54614,-0.0248 l -0.20273,-0.62061 0.78611,0 q 0.32272,0 0.32272,-0.31858 l 0,-4.56771 -0.99712,0 q -0.33927,0.86058 -1.00953,1.65911 l -0.67026,-0.24411 q 1.24122,-1.45637 1.51015,-3.47543 l 0.65785,0.14481 q -0.0455,0.4427 -0.26893,1.27018 l 3.63265,0 z m -3.26028,2.24662 q -0.5751,1.70462 -1.67152,2.48245 l -0.52545,-0.43443 q 1.1502,-0.8523 1.60532,-2.32936 l 0.59165,0.28134 z m 3.4837,2.27972 -0.59578,0.35582 q -0.58752,-1.69634 -1.48947,-2.47418 l 0.55855,-0.34754 q 1.0178,0.9516 1.5267,2.4659 z" />
              <path
                 id="path45261"
                 style="fill:#ffffff;fill-opacity:1"
                 d="m -222.22564,-107.36968 -0.42202,0.5089 q -0.72405,-0.56683 -0.95161,-0.71164 -0.43856,0.77784 -1.83701,1.77909 l -0.45098,-0.53372 q 1.39431,-0.95161 1.73772,-1.60946 -0.40133,-0.28548 -1.21227,-0.5751 0.49236,-1.27019 0.7406,-2.56934 l -0.93505,0 0,-0.61647 1.05917,0 q 0.19446,-1.05918 0.27307,-1.59291 l 0.65372,0.16964 q -0.0496,0.50062 -0.27307,1.42327 l 1.39844,0 q -0.19032,2.24248 -0.83989,3.5168 0.58751,0.40961 1.05918,0.81094 z m -0.92265,-3.71127 -0.79852,0 q -0.27721,1.17917 -0.61647,2.21352 0.40133,0.14895 0.74473,0.35582 0.55855,-1.11297 0.67026,-2.56934 z m 4.9649,1.71289 -2.03974,0 0,2.75552 q 0,0.34755 -0.22756,0.56269 -0.22756,0.21515 -0.58751,0.21515 l -0.86472,0 -0.26894,-0.69509 q 0.54201,0.0372 0.89369,0.0372 0.24824,0 0.31444,-0.0496 0.0703,-0.0538 0.0703,-0.1986 l 0,-2.62726 -1.70462,0 0,-0.62061 1.70462,0 0,-0.86886 q 0.71577,-0.67853 1.23708,-1.5267 l -2.80517,0 0,-0.62062 3.57473,0 0,0.58752 q -0.4758,0.9185 -1.33638,1.77909 l 0,0.64957 2.03974,0 0,0.62061 z" />
            </g>
            <g
               id="text45165"
               style="font-style:normal;font-weight:normal;font-size:6.60026169px;line-height:125%;font-family:sans-serif;letter-spacing:0px;word-spacing:0px;fill:#000000;fill-opacity:1;stroke:none;stroke-width:1px;stroke-linecap:butt;stroke-linejoin:miter;stroke-opacity:1"
               transform="matrix(-0.94477323,0.09007955,-0.08099564,-1.0507325,0,0)">
              <path
                 id="path45264"
                 style="fill:#ffffff;fill-opacity:1"
                 d="m 134.02653,-198.7873 q 0,0.35773 -0.13536,0.63167 -0.13535,0.27393 -0.36417,0.45119 -0.27072,0.2127 -0.59622,0.30294 -0.32227,0.0902 -0.82181,0.0902 l -1.70163,0 0,-4.79873 1.42125,0 q 0.52532,0 0.78636,0.0387 0.26105,0.0387 0.49953,0.16114 0.26427,0.13858 0.38351,0.35773 0.11925,0.21593 0.11925,0.51887 0,0.34162 -0.17403,0.58332 -0.17403,0.23849 -0.46408,0.38352 l 0,0.0258 q 0.48664,0.0999 0.76702,0.42863 0.28038,0.3255 0.28038,0.82503 z m -1.07319,-2.16249 q 0,-0.17403 -0.058,-0.29327 -0.058,-0.11924 -0.18692,-0.19337 -0.15147,-0.087 -0.3674,-0.10635 -0.21592,-0.0226 -0.53498,-0.0226 l -0.76058,0 0,1.3858 0.82504,0 q 0.29972,0 0.47697,-0.029 0.17725,-0.0322 0.32872,-0.12891 0.15147,-0.0967 0.21271,-0.24815 0.0644,-0.1547 0.0644,-0.36418 z m 0.4093,2.18827 q 0,-0.29005 -0.087,-0.46085 -0.087,-0.17081 -0.31583,-0.29006 -0.1547,-0.0806 -0.37707,-0.10312 -0.21915,-0.0258 -0.53498,-0.0258 l -1.00229,0 0,1.78543 0.84437,0 q 0.41897,0 0.68646,-0.0419 0.26749,-0.0451 0.4383,-0.16114 0.18047,-0.12569 0.26426,-0.28683 0.0838,-0.16114 0.0838,-0.41574 z" />
              <path
                 id="path45266"
                 style="fill:#ffffff;fill-opacity:1"
                 d="m 137.95188,-199.10958 q 0,0.87982 -0.45119,1.38902 -0.45119,0.5092 -1.20854,0.5092 -0.7638,0 -1.21499,-0.5092 -0.44797,-0.5092 -0.44797,-1.38902 0,-0.87982 0.44797,-1.38902 0.45119,-0.51242 1.21499,-0.51242 0.75735,0 1.20854,0.51242 0.45119,0.5092 0.45119,1.38902 z m -0.62522,0 q 0,-0.69934 -0.27394,-1.03773 -0.27393,-0.34162 -0.76057,-0.34162 -0.49309,0 -0.76703,0.34162 -0.27071,0.33839 -0.27071,1.03773 0,0.67679 0.27394,1.02807 0.27393,0.34806 0.7638,0.34806 0.48341,0 0.75735,-0.34484 0.27716,-0.34806 0.27716,-1.03129 z" />
              <path
                 id="path45268"
                 style="fill:#ffffff;fill-opacity:1"
                 d="m 141.90301,-197.31126 -0.60588,0 0,-2.04969 q 0,-0.24816 -0.029,-0.46409 -0.029,-0.21914 -0.10636,-0.34161 -0.0806,-0.13536 -0.23204,-0.19981 -0.15147,-0.0677 -0.39318,-0.0677 -0.24815,0 -0.51886,0.12246 -0.27072,0.12247 -0.51887,0.31261 l 0,2.68781 -0.60589,0 0,-3.59985 0.60589,0 0,0.39962 q 0.2836,-0.23526 0.58654,-0.3674 0.30295,-0.13213 0.622,-0.13213 0.58332,0 0.88949,0.35128 0.30616,0.35129 0.30616,1.01196 l 0,2.33652 z" />
              <path
                 id="path45270"
                 style="fill:#ffffff;fill-opacity:1"
                 d="m 144.19119,-201.51377 -0.68323,0 0,-0.62845 0.68323,0 0,0.62845 z m -0.0387,4.28952 q 0,0.63167 -0.32228,0.95395 -0.32228,0.32227 -0.86371,0.32227 -0.12891,0 -0.34161,-0.0258 -0.20948,-0.0258 -0.35128,-0.0645 l 0,-0.57688 0.0322,0 q 0.0902,0.0354 0.24171,0.0806 0.1547,0.0451 0.29972,0.0451 0.23204,0 0.37384,-0.0645 0.14181,-0.0645 0.21271,-0.19337 0.0709,-0.12891 0.0902,-0.31261 0.0225,-0.18047 0.0225,-0.44152 l 0,-2.9005 -0.7509,0 0,-0.5092 1.35679,0 0,3.68686 z" />
              <path
                 id="path45272"
                 style="fill:#ffffff;fill-opacity:1"
                 d="m 148.40659,-199.10958 q 0,0.87982 -0.45119,1.38902 -0.45119,0.5092 -1.20854,0.5092 -0.7638,0 -1.21499,-0.5092 -0.44797,-0.5092 -0.44797,-1.38902 0,-0.87982 0.44797,-1.38902 0.45119,-0.51242 1.21499,-0.51242 0.75735,0 1.20854,0.51242 0.45119,0.5092 0.45119,1.38902 z m -0.62522,0 q 0,-0.69934 -0.27393,-1.03773 -0.27394,-0.34162 -0.76058,-0.34162 -0.49309,0 -0.76702,0.34162 -0.27072,0.33839 -0.27072,1.03773 0,0.67679 0.27394,1.02807 0.27394,0.34806 0.7638,0.34806 0.48342,0 0.75735,-0.34484 0.27716,-0.34806 0.27716,-1.03129 z" />
              <path
                 id="path45274"
                 style="fill:#ffffff;fill-opacity:1"
                 d="m 152.33194,-197.31126 -0.60588,0 0,-0.39963 q -0.30616,0.24171 -0.58655,0.37062 -0.28038,0.12891 -0.61877,0.12891 -0.56721,0 -0.88304,-0.34484 -0.31584,-0.34806 -0.31584,-1.0184 l 0,-2.33651 0.60589,0 0,2.04969 q 0,0.27393 0.0258,0.47052 0.0258,0.19337 0.10957,0.33195 0.087,0.1418 0.2256,0.20626 0.13858,0.0644 0.40285,0.0644 0.23526,0 0.51242,-0.12246 0.28038,-0.12247 0.52209,-0.31261 l 0,-2.6878 0.60588,0 0,3.59985 z" />
              <path
                 id="path45276"
                 style="fill:#ffffff;fill-opacity:1"
                 d="m 155.77065,-200.25044 -0.0322,0 q -0.13536,-0.0322 -0.26427,-0.0451 -0.12569,-0.0161 -0.29972,-0.0161 -0.28038,0 -0.54143,0.12569 -0.26104,0.12247 -0.50275,0.31906 l 0,2.55567 -0.60589,0 0,-3.59985 0.60589,0 0,0.53176 q 0.36095,-0.29005 0.63488,-0.4093 0.27716,-0.12246 0.56399,-0.12246 0.15792,0 0.22882,0.01 0.0709,0.006 0.2127,0.029 l 0,0.622 z" />
            </g>
            <g
               id="text45169"
               style="font-style:normal;font-weight:normal;font-size:5.36753178px;line-height:125%;font-family:sans-serif;letter-spacing:0px;word-spacing:0px;fill:#000000;fill-opacity:1;stroke:none;stroke-width:1px;stroke-linecap:butt;stroke-linejoin:miter;stroke-opacity:1"
               transform="matrix(-0.29541245,0.83087878,-1.126045,-0.21797694,0,0)">
              <path
                 id="path45279"
                 style="fill:#ffffff;fill-opacity:1"
                 d="m 242.97636,-5.4425534 q 0,0.2280152 -0.10746,0.4507888 -0.10483,0.2227735 -0.29615,0.3774045 -0.20967,0.1677354 -0.49011,0.2620866 -0.27781,0.094351 -0.67094,0.094351 -0.42196,0 -0.76005,-0.078626 -0.33547,-0.078626 -0.68404,-0.233257 l 0,-0.6499745 0.0367,0 q 0.29616,0.2463613 0.68404,0.3800254 0.38789,0.1336642 0.7286,0.1336642 0.48224,0 0.74957,-0.1808397 0.26995,-0.1808397 0.26995,-0.4822392 0,-0.2594657 -0.12842,-0.3826463 -0.1258,-0.1231807 -0.38527,-0.1913232 -0.19656,-0.052417 -0.4272,-0.086488 -0.22802,-0.034071 -0.48486,-0.086489 -0.51893,-0.1100763 -0.77053,-0.3747837 -0.24899,-0.2673282 -0.24899,-0.6945292 0,-0.4901018 0.4141,-0.8019848 0.4141,-0.3145038 1.05097,-0.3145038 0.41147,0 0.75481,0.078626 0.34333,0.078626 0.60804,0.193944 l 0,0.6132824 -0.0367,0 q -0.22277,-0.1887023 -0.58707,-0.3118829 -0.36168,-0.1258016 -0.7417,-0.1258016 -0.41672,0 -0.67095,0.1729771 -0.2516,0.1729771 -0.2516,0.4455471 0,0.2437405 0.1258,0.3826463 0.1258,0.1389059 0.44293,0.2122901 0.16773,0.036692 0.477,0.089109 0.30926,0.052417 0.52417,0.1074555 0.43506,0.115318 0.65522,0.348575 0.22015,0.233257 0.22015,0.6525955 z" />
              <path
                 id="path45281"
                 style="fill:#ffffff;fill-opacity:1"
                 d="m 246.04539,-4.3286858 -0.4901,0 0,-0.3118829 q -0.0655,0.044555 -0.17822,0.1258015 -0.11008,0.078626 -0.21491,0.1258015 -0.12318,0.06028 -0.28305,0.099593 -0.15988,0.041934 -0.37479,0.041934 -0.39575,0 -0.67094,-0.2620866 -0.27519,-0.2620865 -0.27519,-0.6683206 0,-0.3328498 0.14153,-0.5372773 0.14414,-0.2070484 0.40885,-0.3249873 0.26733,-0.1179389 0.64211,-0.1598728 0.37479,-0.041934 0.80461,-0.062901 l 0,-0.076005 q 0,-0.1677354 -0.0603,-0.2778117 -0.0577,-0.1100764 -0.16774,-0.1729771 -0.10483,-0.06028 -0.2516,-0.081247 -0.14677,-0.020967 -0.30664,-0.020967 -0.19394,0 -0.43244,0.052417 -0.2385,0.049797 -0.49273,0.1467685 l -0.0262,0 0,-0.5005852 q 0.14414,-0.039313 0.41671,-0.086489 0.27257,-0.047176 0.53728,-0.047176 0.30926,0 0.53728,0.052417 0.23063,0.049797 0.39837,0.1729771 0.16511,0.1205598 0.2516,0.311883 0.0865,0.1913231 0.0865,0.4743766 l 0,1.9866157 z m -0.4901,-0.7207379 0,-0.815089 q -0.22539,0.013104 -0.53204,0.039313 -0.30402,0.026209 -0.48224,0.076005 -0.21229,0.06028 -0.34333,0.1887023 -0.13104,0.1258016 -0.13104,0.3485751 0,0.251603 0.15201,0.3800254 0.15201,0.1258016 0.46389,0.1258016 0.25947,0 0.47438,-0.099593 0.21491,-0.1022138 0.39837,-0.2437405 z" />
              <path
                 id="path45283"
                 style="fill:#ffffff;fill-opacity:1"
                 d="m 250.67122,-7.2561921 -0.76267,2.9275063 -0.45603,0 -0.75219,-2.2565648 -0.74695,2.2565648 -0.45341,0 -0.77053,-2.9275063 0.51369,0 0.53727,2.2670483 0.73123,-2.2670483 0.40623,0 0.74957,2.2670483 0.50844,-2.2670483 0.49535,0 z" />
              <path
                 id="path45285"
                 style="fill:#ffffff;fill-opacity:1"
                 d="m 253.80839,-4.3286858 -0.49272,0 0,-0.3249872 q -0.24898,0.1965648 -0.477,0.3013995 -0.22801,0.1048346 -0.5032,0.1048346 -0.46127,0 -0.71812,-0.2804326 -0.25684,-0.2830534 -0.25684,-0.8281934 l 0,-1.9001272 0.49272,0 0,1.6668702 q 0,0.2227735 0.021,0.3826463 0.021,0.1572519 0.0891,0.2699491 0.0708,0.1153181 0.18346,0.1677354 0.11269,0.052417 0.3276,0.052417 0.19133,0 0.41672,-0.099593 0.22802,-0.099593 0.42458,-0.2542239 l 0,-2.1858015 0.49272,0 0,2.9275063 z" />
              <path
                 id="path45287"
                 style="fill:#ffffff;fill-opacity:1"
                 d="m 257.35442,-5.8147163 q 0,0.3669211 -0.10483,0.660458 -0.10221,0.2935369 -0.27781,0.4927227 -0.18608,0.2070483 -0.40886,0.3118829 -0.22277,0.1022138 -0.4901,0.1022138 -0.24898,0 -0.43506,-0.06028 -0.18608,-0.057659 -0.36692,-0.1572519 l -0.0315,0.1362849 -0.46128,0 0,-4.0780661 0.49273,0 0,1.457201 q 0.20704,-0.1703562 0.4403,-0.2778117 0.23326,-0.1100763 0.52417,-0.1100763 0.51894,0 0.81771,0.3983715 0.3014,0.3983715 0.3014,1.1243511 z m -0.50844,0.013104 q 0,-0.524173 -0.17298,-0.7941221 -0.17298,-0.27257 -0.55824,-0.27257 -0.21492,0 -0.43507,0.094351 -0.22015,0.09173 -0.40885,0.2384987 l 0,1.6773537 q 0.20967,0.094351 0.35906,0.1310432 0.15201,0.036692 0.34333,0.036692 0.40885,0 0.63949,-0.2673283 0.23326,-0.2699491 0.23326,-0.8439186 z" />
              <path
                 id="path45289"
                 style="fill:#ffffff;fill-opacity:1"
                 d="m 260.6174,-5.7911285 q 0,0.7154962 -0.36692,1.1295929 -0.36692,0.4140967 -0.98282,0.4140967 -0.62115,0 -0.98807,-0.4140967 -0.3643,-0.4140967 -0.3643,-1.1295929 0,-0.7154962 0.3643,-1.1295929 0.36692,-0.4167175 0.98807,-0.4167175 0.6159,0 0.98282,0.4167175 0.36692,0.4140967 0.36692,1.1295929 z m -0.50845,0 q 0,-0.5687277 -0.22277,-0.8439186 -0.22277,-0.2778117 -0.61852,-0.2778117 -0.401,0 -0.62377,0.2778117 -0.22015,0.2751909 -0.22015,0.8439186 0,0.5503817 0.22277,0.836056 0.22277,0.2830534 0.62115,0.2830534 0.39313,0 0.6159,-0.2804326 0.22539,-0.2830534 0.22539,-0.8386768 z" />
              <path
                 id="path45291"
                 style="fill:#ffffff;fill-opacity:1"
                 d="m 263.83058,-4.3286858 -0.49272,0 0,-1.6668702 q 0,-0.2018066 -0.0236,-0.3774046 -0.0236,-0.1782188 -0.0865,-0.2778117 -0.0655,-0.1100763 -0.1887,-0.1624936 -0.12318,-0.055038 -0.31974,-0.055038 -0.20181,0 -0.42196,0.099593 -0.22016,0.099593 -0.42196,0.2542239 l 0,2.1858015 -0.49273,0 0,-2.9275063 0.49273,0 0,0.3249873 q 0.23063,-0.1913232 0.47699,-0.2987787 0.24637,-0.1074554 0.50583,-0.1074554 0.47438,0 0.72336,0.2856743 0.24898,0.2856743 0.24898,0.8229516 l 0,1.9001272 z" />
              <path
                 id="path45293"
                 style="fill:#ffffff;fill-opacity:1"
                 d="m 267.05425,-4.3286858 -0.49011,0 0,-0.3118829 q -0.0655,0.044555 -0.17821,0.1258015 -0.11008,0.078626 -0.21492,0.1258015 -0.12318,0.06028 -0.28305,0.099593 -0.15987,0.041934 -0.37478,0.041934 -0.39575,0 -0.67094,-0.2620866 -0.27519,-0.2620865 -0.27519,-0.6683206 0,-0.3328498 0.14152,-0.5372773 0.14415,-0.2070484 0.40886,-0.3249873 0.26733,-0.1179389 0.64211,-0.1598728 0.37478,-0.041934 0.8046,-0.062901 l 0,-0.076005 q 0,-0.1677354 -0.0603,-0.2778117 -0.0576,-0.1100764 -0.16773,-0.1729771 -0.10484,-0.06028 -0.2516,-0.081247 -0.14677,-0.020967 -0.30664,-0.020967 -0.19395,0 -0.43245,0.052417 -0.2385,0.049797 -0.49272,0.1467685 l -0.0262,0 0,-0.5005852 q 0.14415,-0.039313 0.41672,-0.086489 0.27257,-0.047176 0.53728,-0.047176 0.30926,0 0.53727,0.052417 0.23064,0.049797 0.39837,0.1729771 0.16512,0.1205598 0.25161,0.311883 0.0865,0.1913231 0.0865,0.4743766 l 0,1.9866157 z m -0.49011,-0.7207379 0,-0.815089 q -0.22539,0.013104 -0.53203,0.039313 -0.30402,0.026209 -0.48224,0.076005 -0.21229,0.06028 -0.34333,0.1887023 -0.13105,0.1258016 -0.13105,0.3485751 0,0.251603 0.15201,0.3800254 0.15201,0.1258016 0.4639,0.1258016 0.25946,0 0.47437,-0.099593 0.21491,-0.1022138 0.39837,-0.2437405 z" />
            </g>
            <g
               id="text45173"
               style="font-style:normal;font-weight:normal;font-size:4.67670584px;line-height:125%;font-family:sans-serif;letter-spacing:0px;word-spacing:0px;fill:#000000;fill-opacity:1;stroke:none;stroke-width:1px;stroke-linecap:butt;stroke-linejoin:miter;stroke-opacity:1"
               transform="matrix(0.83503798,-0.52589633,0.49563753,0.8854041,0,0)">
              <path
                 id="path45218"
                 style="font-style:normal;font-variant:normal;font-weight:bold;font-stretch:normal;font-family:sans-serif;-inkscape-font-specification:'sans-serif Bold';fill:#ffffff;fill-opacity:1"
                 d="m -137.70046,40.301882 q -0.22836,0.08906 -0.60514,0.178116 -0.37679,0.08677 -0.75129,0.08677 -0.86775,0 -1.35871,-0.470411 -0.49096,-0.472694 -0.49096,-1.303906 0,-0.792391 0.49553,-1.276503 0.49553,-0.486395 1.38154,-0.486395 0.33568,0 0.6394,0.06166 0.30371,0.05937 0.67593,0.239773 l 0,0.796958 -0.0982,0 q -0.0639,-0.04795 -0.18725,-0.134729 -0.12331,-0.08906 -0.23749,-0.150714 -0.13244,-0.07307 -0.31056,-0.125596 -0.17583,-0.05252 -0.3745,-0.05252 -0.23292,0 -0.42246,0.06851 -0.18953,0.06851 -0.34025,0.210087 -0.14386,0.137013 -0.22835,0.349383 -0.0822,0.210086 -0.0822,0.486395 0,0.564036 0.29915,0.863181 0.29914,0.299145 0.88373,0.299145 0.0502,0 0.10961,-0.0023 0.0617,-0.0023 0.11189,-0.0069 l 0,-0.666796 -0.67821,0 0,-0.641677 1.5688,0 0,1.678408 z" />
              <path
                 id="path45220"
                 style="font-style:normal;font-variant:normal;font-weight:bold;font-stretch:normal;font-family:sans-serif;-inkscape-font-specification:'sans-serif Bold';fill:#ffffff;fill-opacity:1"
                 d="m -134.39845,40.495983 -0.82208,0 0,-0.28316 q -0.22835,0.17355 -0.41789,0.264892 -0.18953,0.08906 -0.45214,0.08906 -0.42474,0 -0.65538,-0.24434 -0.22835,-0.244339 -0.22835,-0.721601 l 0,-1.669273 0.82664,0 0,1.271936 q 0,0.194102 0.0114,0.324264 0.0137,0.127879 0.0594,0.21237 0.0434,0.08449 0.13016,0.123311 0.0891,0.03882 0.24662,0.03882 0.10505,0 0.23293,-0.03882 0.12788,-0.03882 0.24662,-0.114177 l 0,-1.817704 0.82208,0 0,2.564424 z" />
              <path
                 id="path45222"
                 style="font-style:normal;font-variant:normal;font-weight:bold;font-stretch:normal;font-family:sans-serif;-inkscape-font-specification:'sans-serif Bold';fill:#ffffff;fill-opacity:1"
                 d="m -131.98018,40.473148 q -0.13244,0.03425 -0.28087,0.05252 -0.14843,0.02055 -0.36309,0.02055 -0.47954,0 -0.71475,-0.194101 -0.23292,-0.194102 -0.23292,-0.664513 l 0,-1.198862 -0.33796,0 0,-0.557186 0.33796,0 0,-0.733019 0.82208,0 0,0.733019 0.76955,0 0,0.557186 -0.76955,0 0,0.908852 q 0,0.134729 0.002,0.235205 0.002,0.100476 0.0365,0.1804 0.032,0.07993 0.11189,0.127879 0.0822,0.04567 0.23749,0.04567 0.0639,0 0.1667,-0.0274 0.10504,-0.0274 0.14615,-0.05024 l 0.0685,0 0,0.564037 z" />
              <path
                 id="path45224"
                 style="font-style:normal;font-variant:normal;font-weight:bold;font-stretch:normal;font-family:sans-serif;-inkscape-font-specification:'sans-serif Bold';fill:#ffffff;fill-opacity:1"
                 d="m -128.96589,39.365627 -1.88165,0 q 0.0183,0.301428 0.22836,0.461277 0.21237,0.159848 0.62341,0.159848 0.26032,0 0.50466,-0.09363 0.24434,-0.09363 0.38592,-0.200953 l 0.0913,0 0,0.659946 q -0.27859,0.111893 -0.52521,0.162132 -0.24663,0.05024 -0.54577,0.05024 -0.77184,0 -1.18288,-0.3471 -0.41104,-0.347099 -0.41104,-0.988776 0,-0.634826 0.38821,-1.004761 0.39048,-0.372218 1.0687,-0.372218 0.62569,0 0.94082,0.317413 0.31513,0.31513 0.31513,0.908852 l 0,0.287727 z m -0.81751,-0.481829 q -0.007,-0.258041 -0.12788,-0.388203 -0.12103,-0.130162 -0.37679,-0.130162 -0.23749,0 -0.39048,0.123312 -0.153,0.123311 -0.17127,0.395053 l 1.06642,0 z" />
              <path
                 id="path45226"
                 style="font-style:normal;font-variant:normal;font-weight:bold;font-stretch:normal;font-family:sans-serif;-inkscape-font-specification:'sans-serif Bold';fill:#ffffff;fill-opacity:1"
                 d="m -125.81003,40.495983 -0.82664,0 0,-1.271936 q 0,-0.155281 -0.016,-0.308279 -0.016,-0.155281 -0.0548,-0.228355 -0.0457,-0.08449 -0.13473,-0.123311 -0.0868,-0.03882 -0.24434,-0.03882 -0.1119,0 -0.22836,0.03654 -0.11417,0.03654 -0.2489,0.116461 l 0,1.817704 -0.82208,0 0,-2.564424 0.82208,0 0,0.28316 q 0.21922,-0.171266 0.42017,-0.262608 0.20323,-0.09134 0.44986,-0.09134 0.4156,0 0.64853,0.242056 0.2352,0.242056 0.2352,0.723885 l 0,1.669273 z" />
              <path
                 id="path45228"
                 style="font-style:normal;font-variant:normal;font-weight:bold;font-stretch:normal;font-family:sans-serif;-inkscape-font-specification:'sans-serif Bold';fill:#ffffff;fill-opacity:1"
                 d="m -120.75654,37.753442 -1.06185,0 0,2.742541 -0.87688,0 0,-2.742541 -1.06185,0 0,-0.657662 3.00058,0 0,0.657662 z" />
              <path
                 id="path45230"
                 style="font-style:normal;font-variant:normal;font-weight:bold;font-stretch:normal;font-family:sans-serif;-inkscape-font-specification:'sans-serif Bold';fill:#ffffff;fill-opacity:1"
                 d="m -118.7219,39.826904 0,-0.534351 q -0.1667,0.0137 -0.3608,0.03882 -0.1941,0.02284 -0.29457,0.05481 -0.12332,0.03882 -0.18954,0.114177 -0.0639,0.07307 -0.0639,0.194102 0,0.07992 0.0137,0.130162 0.0137,0.05024 0.0685,0.09591 0.0525,0.04567 0.12559,0.06851 0.0731,0.02055 0.22836,0.02055 0.12331,0 0.24891,-0.05024 0.12787,-0.05024 0.22378,-0.132445 z m 0,0.397337 q -0.0662,0.05024 -0.16441,0.121028 -0.0982,0.07079 -0.18497,0.111894 -0.12103,0.05481 -0.25119,0.07992 -0.13016,0.0274 -0.28544,0.0274 -0.36537,0 -0.61199,-0.226072 -0.24663,-0.226071 -0.24663,-0.577737 0,-0.280877 0.1256,-0.458993 0.12559,-0.178117 0.35623,-0.280877 0.22836,-0.102759 0.56632,-0.146147 0.33797,-0.04339 0.70105,-0.06394 l 0,-0.0137 q 0,-0.21237 -0.17355,-0.292295 -0.17355,-0.08221 -0.51151,-0.08221 -0.20324,0 -0.43388,0.07307 -0.23064,0.07079 -0.33111,0.109611 l -0.0754,0 0,-0.618842 q 0.13016,-0.03425 0.42246,-0.07992 0.29457,-0.04796 0.58915,-0.04796 0.70105,0 1.01161,0.216937 0.31285,0.214654 0.31285,0.675931 l 0,1.74463 -0.81523,0 0,-0.271742 z" />
              <path
                 id="path45232"
                 style="font-style:normal;font-variant:normal;font-weight:bold;font-stretch:normal;font-family:sans-serif;-inkscape-font-specification:'sans-serif Bold';fill:#ffffff;fill-opacity:1"
                 d="m -114.66632,40.201405 q 0,0.360801 -0.10276,0.607424 -0.10275,0.246623 -0.28772,0.38592 -0.18497,0.14158 -0.44758,0.203235 -0.26032,0.06394 -0.58915,0.06394 -0.26718,0 -0.5275,-0.03197 -0.25804,-0.03197 -0.44758,-0.07764 l 0,-0.641677 0.10048,0 q 0.15071,0.05937 0.36765,0.107326 0.21694,0.05024 0.3882,0.05024 0.22836,0 0.36994,-0.04339 0.14386,-0.0411 0.21922,-0.118744 0.0708,-0.07307 0.10276,-0.187251 0.032,-0.114178 0.032,-0.274026 l 0,-0.04796 q -0.14843,0.121028 -0.32883,0.191818 -0.1804,0.07079 -0.40191,0.07079 -0.53892,0 -0.83121,-0.324263 -0.29229,-0.324264 -0.29229,-0.986493 0,-0.317413 0.0891,-0.548052 0.0891,-0.230638 0.25119,-0.401904 0.15072,-0.159848 0.36994,-0.248907 0.2215,-0.08906 0.45214,-0.08906 0.20781,0 0.37679,0.05024 0.17126,0.04796 0.31056,0.134729 l 0.0297,-0.114177 0.79695,0 0,2.269846 z m -0.82207,-0.513798 0,-1.162326 q -0.0708,-0.02969 -0.17355,-0.04567 -0.10276,-0.01827 -0.18497,-0.01827 -0.32426,0 -0.4864,0.187251 -0.16213,0.184967 -0.16213,0.518365 0,0.369935 0.13702,0.516082 0.13929,0.146147 0.41103,0.146147 0.12332,0 0.24206,-0.03882 0.11874,-0.03882 0.21694,-0.10276 z" />
            </g>
            <g
               id="text45181"
               style="font-style:normal;font-weight:normal;font-size:8.06591606px;line-height:125%;font-family:sans-serif;letter-spacing:0px;word-spacing:0px;fill:#000000;fill-opacity:1;stroke:none;stroke-width:1px;stroke-linecap:butt;stroke-linejoin:miter;stroke-opacity:1"
               transform="matrix(0.78827502,-0.30995991,0.21134912,1.1854876,0,0)">
              <path
                 id="path45207"
                 style="font-style:normal;font-variant:normal;font-weight:bold;font-stretch:normal;font-family:sans-serif;-inkscape-font-specification:'sans-serif Bold';fill:#ffffff;fill-opacity:1"
                 d="m -190.49912,44.943016 -1.51236,0 0,-2.583614 -2.23309,0 0,2.583614 -1.51236,0 0,-5.864331 1.51236,0 0,2.146448 2.23309,0 0,-2.146448 1.51236,0 0,5.864331 z" />
              <path
                 id="path45209"
                 style="font-style:normal;font-variant:normal;font-weight:bold;font-stretch:normal;font-family:sans-serif;-inkscape-font-specification:'sans-serif Bold';fill:#ffffff;fill-opacity:1"
                 d="m -184.72143,42.99349 -3.24528,0 q 0.0315,0.519874 0.39385,0.795564 0.36627,0.275691 1.07519,0.275691 0.44898,0 0.8704,-0.161476 0.42141,-0.161476 0.66559,-0.346582 l 0.15754,0 0,1.138208 q -0.48049,0.192983 -0.90584,0.279629 -0.42535,0.08664 -0.94129,0.08664 -1.33119,0 -2.04011,-0.598642 -0.70892,-0.598642 -0.70892,-1.705343 0,-1.094885 0.66954,-1.732911 0.67347,-0.641965 1.84319,-0.641965 1.07913,0 1.62263,0.547442 0.54351,0.543504 0.54351,1.567498 l 0,0.496242 z m -1.40996,-0.831009 q -0.0118,-0.445044 -0.22056,-0.669535 -0.20873,-0.22449 -0.64984,-0.22449 -0.4096,0 -0.67347,0.212675 -0.26388,0.212676 -0.29538,0.68135 l 1.83925,0 z" />
              <path
                 id="path45211"
                 style="font-style:normal;font-variant:normal;font-weight:bold;font-stretch:normal;font-family:sans-serif;-inkscape-font-specification:'sans-serif Bold';fill:#ffffff;fill-opacity:1"
                 d="m -182.30324,44.943016 -1.41783,0 0,-6.128206 1.41783,0 0,6.128206 z" />
              <path
                 id="path45213"
                 style="font-style:normal;font-variant:normal;font-weight:bold;font-stretch:normal;font-family:sans-serif;-inkscape-font-specification:'sans-serif Bold';fill:#ffffff;fill-opacity:1"
                 d="m -179.54633,44.943016 -1.41784,0 0,-6.128206 1.41784,0 0,6.128206 z" />
              <path
                 id="path45215"
                 style="font-style:normal;font-variant:normal;font-weight:bold;font-stretch:normal;font-family:sans-serif;-inkscape-font-specification:'sans-serif Bold';fill:#ffffff;fill-opacity:1"
                 d="m -173.68594,42.733554 q 0,1.090946 -0.63803,1.721096 -0.63408,0.626211 -1.78411,0.626211 -1.15002,0 -1.78805,-0.626211 -0.63408,-0.63015 -0.63408,-1.721096 0,-1.098824 0.63802,-1.725035 0.64197,-0.626211 1.78411,-0.626211 1.1579,0 1.78805,0.630149 0.63409,0.63015 0.63409,1.721097 z m -1.74473,1.075193 q 0.13785,-0.169353 0.2048,-0.405659 0.0709,-0.240245 0.0709,-0.661657 0,-0.389906 -0.0709,-0.653781 -0.0709,-0.263875 -0.19692,-0.421412 -0.12603,-0.161476 -0.30326,-0.22843 -0.17723,-0.06695 -0.38203,-0.06695 -0.2048,0 -0.36627,0.05514 -0.15754,0.05514 -0.30326,0.220552 -0.12997,0.153599 -0.20874,0.421413 -0.0748,0.267814 -0.0748,0.673473 0,0.362336 0.067,0.630149 0.067,0.263875 0.19692,0.425351 0.12603,0.153599 0.29932,0.224491 0.17723,0.07089 0.40172,0.07089 0.19298,0 0.36627,-0.06302 0.17723,-0.06695 0.29932,-0.220552 z" />
            </g>
            <g
               id="text45185"
               style="font-style:normal;font-weight:normal;font-size:5.87073851px;line-height:125%;font-family:sans-serif;letter-spacing:0px;word-spacing:0px;fill:#000000;fill-opacity:1;stroke:none;stroke-width:1px;stroke-linecap:butt;stroke-linejoin:miter;stroke-opacity:1"
               transform="matrix(0.73016329,0.67743223,-0.63026004,0.78481285,0,0)">
              <path
                 id="path45235"
                 style="fill:#ffffff;fill-opacity:1"
                 d="m 36.997282,128.50516 -0.567581,0 0,-3.76381 -2.129862,0 0,3.76381 -0.567582,0 0,-4.26833 3.265025,0 0,4.26833 z" />
              <path
                 id="path45237"
                 style="fill:#ffffff;fill-opacity:1"
                 d="m 40.921619,126.86548 q 0,0.38985 -0.111796,0.71377 -0.111797,0.32106 -0.315323,0.54465 -0.189194,0.21213 -0.447185,0.32966 -0.255125,0.11466 -0.541782,0.11466 -0.249392,0 -0.452919,-0.0545 -0.20066,-0.0545 -0.409919,-0.16913 l 0,1.34155 -0.538916,0 0,-4.38298 0.538916,0 0,0.33539 q 0.214992,-0.1806 0.481584,-0.30099 0.269457,-0.12327 0.573314,-0.12327 0.579047,0 0.900103,0.43859 0.323923,0.43572 0.323923,1.21256 z m -0.556115,0.0143 q 0,-0.57905 -0.197793,-0.8657 -0.197794,-0.28666 -0.607713,-0.28666 -0.232193,0 -0.467252,0.10033 -0.235059,0.10033 -0.450051,0.26372 l 0,1.81454 q 0.229325,0.1032 0.39272,0.14047 0.166261,0.0373 0.375521,0.0373 0.450052,0 0.70231,-0.30386 0.252258,-0.30385 0.252258,-0.9001 z" />
              <path
                 id="path45239"
                 style="fill:#ffffff;fill-opacity:1"
                 d="m 44.458968,128.50516 -0.533182,0 0,-2.40506 -1.676944,2.40506 -0.487317,0 0,-3.20196 0.533182,0 0,2.37065 1.659745,-2.37065 0.504516,0 0,3.20196 z" />
              <path
                 id="path45241"
                 style="fill:#ffffff;fill-opacity:1"
                 d="m 48.153979,127.53626 q 0,0.23219 -0.0946,0.41278 -0.09173,0.1806 -0.255125,0.30099 -0.18346,0.13473 -0.40132,0.19493 -0.214993,0.0602 -0.567581,0.0602 l -1.324356,0 0,-3.20196 1.238359,0 q 0.358321,0 0.538915,0.0258 0.183461,0.0229 0.343989,0.10606 0.180594,0.0946 0.263725,0.24652 0.086,0.15193 0.086,0.35833 0,0.23792 -0.134729,0.41278 -0.134729,0.17486 -0.346855,0.27233 l 0,0.0287 q 0.28379,0.0688 0.467251,0.26659 0.186327,0.19493 0.186327,0.51599 z m -0.725243,-1.41322 q 0,-0.1032 -0.04586,-0.18633 -0.043,-0.0831 -0.134729,-0.129 -0.120396,-0.0602 -0.272324,-0.0659 -0.149062,-0.009 -0.369788,-0.009 l -0.561848,0 0,0.87717 0.673645,0 q 0.212126,0 0.312456,-0.0143 0.103197,-0.0172 0.206393,-0.0803 0.10893,-0.0688 0.149062,-0.16053 0.043,-0.0946 0.043,-0.23219 z m 0.169128,1.41608 q 0,-0.15766 -0.0516,-0.25512 -0.0516,-0.10033 -0.226459,-0.18346 -0.10893,-0.0516 -0.235059,-0.0602 -0.126129,-0.0115 -0.349722,-0.0115 l -0.690844,0 0,1.0463 0.51025,0 q 0.321056,0 0.49305,-0.0201 0.174861,-0.0229 0.30099,-0.0946 0.12613,-0.0717 0.186328,-0.17486 0.06306,-0.1032 0.06306,-0.24653 z" />
              <path
                 id="path45243"
                 style="fill:#ffffff;fill-opacity:1"
                 d="m 51.676996,126.96008 -2.359189,0 q 0,0.29525 0.08886,0.51598 0.08886,0.21786 0.243658,0.35832 0.149062,0.1376 0.352589,0.20639 0.206393,0.0688 0.452918,0.0688 0.326789,0 0.656445,-0.129 0.332522,-0.13186 0.472984,-0.25799 l 0.02867,0 0,0.58765 q -0.272324,0.11466 -0.556115,0.19206 -0.28379,0.0774 -0.596247,0.0774 -0.796907,0 -1.244092,-0.42999 -0.447185,-0.43285 -0.447185,-1.22689 0,-0.78544 0.427119,-1.24696 0.429986,-0.46152 1.129429,-0.46152 0.647846,0 0.997567,0.37839 0.352589,0.37839 0.352589,1.07497 l 0,0.29239 z m -0.524583,-0.41279 q -0.0029,-0.42425 -0.214993,-0.65645 -0.20926,-0.23219 -0.639245,-0.23219 -0.432853,0 -0.690844,0.25513 -0.255125,0.25512 -0.289524,0.63351 l 1.834606,0 z" />
              <path
                 id="path45245"
                 style="fill:#ffffff;fill-opacity:1"
                 d="m 54.847423,125.77618 -1.158095,0 0,2.72898 -0.538916,0 0,-2.72898 -1.158095,0 0,-0.47298 2.855106,0 0,0.47298 z" />
            </g>
            <g
               id="text45189"
               style="font-style:normal;font-weight:normal;font-size:9.2496748px;line-height:125%;font-family:sans-serif;letter-spacing:0px;word-spacing:0px;fill:#000000;fill-opacity:1;stroke:none;stroke-width:1px;stroke-linecap:butt;stroke-linejoin:miter;stroke-opacity:1"
               transform="matrix(0.06379123,-0.80448504,1.2343275,0.10976402,0,0)">
              <path
                 id="path45194"
                 style="fill:#ffffff;fill-opacity:1"
                 d="m -201.35736,-124.23385 q -0.14453,0.62326 -0.77683,1.22395 0.40648,0.52843 0.40648,1.34139 l 0,3.13441 -0.85361,0 q -0.80393,-1.52656 -1.04782,-1.91949 -0.24388,-0.39745 -0.50584,-0.60972 -0.26195,-0.21679 -0.50584,-0.21679 -0.23485,0 -0.3839,0.15807 -0.14452,0.15808 -0.14452,0.40648 l 0,0.60069 q 0.14001,-0.0542 0.32067,-0.0542 0.35679,0 0.60972,0.24841 0.25292,0.2484 0.25292,0.60069 0,0.35228 -0.25744,0.6052 -0.25292,0.25292 -0.6052,0.25292 -0.53294,0 -0.85361,-0.32518 -0.32067,-0.32519 -0.32067,-0.88523 l 0,-1.02523 q 0,-0.6594 0.34777,-1.00717 0.35228,-0.35228 0.97555,-0.35228 0.42906,0 0.79038,0.2755 0.36131,0.27551 0.57358,0.61424 0.21679,0.33873 0.75425,1.38655 l 0,-1.88787 q 0,-0.48326 -0.21227,-0.7949 -0.27551,0.19872 -0.75877,0.42455 l -0.21227,-0.29809 q 0.29809,-0.15356 0.61875,-0.46068 -0.31615,-0.18517 -0.74069,-0.18517 -0.93039,0 -1.82916,0.60069 l -0.0452,0 0,-0.95297 q 0.97556,-0.38842 1.86529,-0.38842 0.7949,0 1.29622,0.31615 0.37035,-0.50132 0.37035,-0.8265 l 0.87168,0 z m -3.49121,5.26617 q 0.14452,0 0.24388,-0.0994 0.0994,-0.10388 0.0994,-0.25292 0,-0.1355 -0.10387,-0.23486 -0.0994,-0.0994 -0.23937,-0.0994 -0.1355,0 -0.23938,0.0994 -0.0994,0.0994 -0.0994,0.23486 0,0.14904 0.0994,0.25292 0.0994,0.0994 0.23938,0.0994 z" />
              <path
                 id="path45196"
                 style="fill:#ffffff;fill-opacity:1"
                 d="m -197.32418,-119.67225 q 0,0.56004 -0.32067,0.88523 -0.31615,0.32518 -0.85361,0.32518 -0.35228,0 -0.6052,-0.25292 -0.25292,-0.25292 -0.25292,-0.6052 0,-0.35229 0.25292,-0.60069 0.25292,-0.24841 0.6052,-0.24841 0.18518,0 0.32519,0.0542 l 0,-1.65753 q 0,-0.58262 -0.28002,-0.88974 -0.2755,-0.31164 -0.76328,-0.31164 -0.74521,0 -1.52656,0.46068 l -0.0587,0 0,-0.89426 q 0.79941,-0.30711 1.58527,-0.30711 1.89239,0 1.89239,1.88787 l 0,2.15434 z m -1.17428,0.70457 q 0.14453,0 0.24389,-0.0994 0.0994,-0.10388 0.0994,-0.25292 0,-0.1355 -0.10387,-0.23486 -0.0994,-0.0994 -0.23938,-0.0994 -0.14001,0 -0.24388,0.0994 -0.0994,0.0994 -0.0994,0.23486 0,0.14904 0.0994,0.25292 0.10387,0.0994 0.24388,0.0994 z" />
              <path
                 id="path45198"
                 style="fill:#ffffff;fill-opacity:1"
                 d="m -195.86989,-125.55717 q -0.2213,0.74521 -0.89425,1.18331 -0.67747,0.43809 -1.56721,0.43809 -0.65036,0 -1.02523,-0.28002 -0.37938,-0.28453 -0.37938,-0.75876 0,-0.35228 0.25744,-0.6052 0.25292,-0.25292 0.6052,-0.25292 0.34777,0 0.60069,0.25292 0.2484,0.25292 0.2484,0.6052 0,0.37486 -0.17614,0.58262 0.59617,0 1.13363,-0.37486 0.53294,-0.37487 0.61423,-0.79038 l 0.58262,0 z m -3.00343,0.92587 q 0.13549,0 0.23485,-0.0994 0.0949,-0.10388 0.0949,-0.24389 0,-0.14001 -0.0949,-0.23937 -0.0994,-0.10388 -0.23485,-0.10388 -0.14904,0 -0.2484,0.10388 -0.10388,0.0994 -0.10388,0.23937 0,0.14001 0.10388,0.24389 0.0994,0.0994 0.2484,0.0994 z" />
              <path
                 id="path45200"
                 style="fill:#ffffff;fill-opacity:1"
                 d="m -191.2586,-124.23385 q -0.14452,0.62326 -0.77683,1.22395 0.40648,0.52843 0.40648,1.34139 l 0,3.13441 -0.8536,0 q -0.80393,-1.52656 -1.04782,-1.91949 -0.24389,-0.39745 -0.50584,-0.60972 -0.26195,-0.21679 -0.50584,-0.21679 -0.23486,0 -0.3839,0.15807 -0.14453,0.15808 -0.14453,0.40648 l 0,0.60069 q 0.14001,-0.0542 0.32067,-0.0542 0.3568,0 0.60972,0.24841 0.25292,0.2484 0.25292,0.60069 0,0.35228 -0.25744,0.6052 -0.25292,0.25292 -0.6052,0.25292 -0.53294,0 -0.85361,-0.32518 -0.32066,-0.32519 -0.32066,-0.88523 l 0,-1.02523 q 0,-0.6594 0.34776,-1.00717 0.35229,-0.35228 0.97555,-0.35228 0.42907,0 0.79038,0.2755 0.36132,0.27551 0.57359,0.61424 0.21679,0.33873 0.75425,1.38655 l 0,-1.88787 q 0,-0.48326 -0.21228,-0.7949 -0.2755,0.19872 -0.75876,0.42455 l -0.21227,-0.29809 q 0.29808,-0.15356 0.61875,-0.46068 -0.31615,-0.18517 -0.7407,-0.18517 -0.93038,0 -1.82916,0.60069 l -0.0452,0 0,-0.95297 q 0.97555,-0.38842 1.86529,-0.38842 0.79489,0 1.29622,0.31615 0.37035,-0.50132 0.37035,-0.8265 l 0.87167,0 z m -3.49121,5.26617 q 0.14453,0 0.24389,-0.0994 0.0994,-0.10388 0.0994,-0.25292 0,-0.1355 -0.10388,-0.23486 -0.0994,-0.0994 -0.23937,-0.0994 -0.13549,0 -0.23937,0.0994 -0.0994,0.0994 -0.0994,0.23486 0,0.14904 0.0994,0.25292 0.0994,0.0994 0.23937,0.0994 z" />
              <path
                 id="path45202"
                 style="fill:#ffffff;fill-opacity:1"
                 d="m -186.01952,-118.5341 -0.85361,0 0,-2.91311 q 0,-1.47236 -1.33235,-1.47236 -0.63682,0 -0.98459,0.37938 -0.34776,0.37487 -0.34776,0.99814 0,0.54649 0.20324,1.26912 0.0542,0.18065 0.15807,0.92587 l 0.47875,-0.46068 q 0.23937,-0.23486 0.31615,-0.42003 -0.31615,-0.0813 -0.49681,-0.30712 -0.17614,-0.23034 -0.17614,-0.53294 0,-0.35228 0.2484,-0.60068 0.2484,-0.25293 0.60069,-0.25293 0.36583,0 0.60972,0.26196 0.24388,0.25744 0.24388,0.64585 0,0.42455 -0.28453,0.9078 -0.28002,0.47875 -1.11105,1.19235 -0.24388,0.20775 -0.41099,0.37938 l -0.84909,0 0,-0.38842 q 0,-0.37486 -0.17163,-1.19234 -0.19872,-0.93039 -0.19872,-1.41816 0,-0.98007 0.56004,-1.58527 0.56455,-0.60521 1.61237,-0.60521 2.18596,0 2.18596,2.27629 l 0,2.91311 z m -2.1679,-2.19048 q 0.14001,0 0.23937,-0.0994 0.10388,-0.0994 0.10388,-0.23485 0,-0.14905 -0.0994,-0.24841 -0.0994,-0.10388 -0.24389,-0.10388 -0.14001,0 -0.23937,0.10388 -0.0994,0.0994 -0.0994,0.24841 0,0.13549 0.0994,0.23485 0.0994,0.0994 0.23937,0.0994 z" />
              <path
                 id="path45204"
                 style="fill:#ffffff;fill-opacity:1"
                 d="m -185.97888,-124.00803 -3.68993,0 q 0.17162,-0.52843 0.32518,-0.75876 0.15356,-0.23034 0.40648,-0.41552 0.24841,-0.18969 0.53746,-0.28453 0.28905,-0.0948 0.58262,-0.0948 0.78586,0 1.33235,0.56907 l 0,-0.97103 0.50584,0 0,1.95562 z m -0.72714,-0.50133 q -0.1084,-0.24389 -0.42455,-0.39293 -0.31615,-0.15356 -0.6865,-0.15356 -0.37486,0 -0.69101,0.15356 -0.31616,0.14904 -0.42003,0.39293 l 2.22209,0 z" />
            </g>
          </g>
        </g>
      </g>
    </g>
  </g>
  <metadata
     id="metadata44422">
    <rdf:RDF>
      <cc:Work>
        <dc:format>image/svg+xml</dc:format>
        <dc:type
           rdf:resource="http://purl.org/dc/dcmitype/StillImage" />
        <cc:license
           rdf:resource="http://creativecommons.org/publicdomain/zero/1.0/" />
        <dc:publisher>
          <cc:Agent
             rdf:about="http://openclipart.org/">
            <dc:title>Openclipart</dc:title>
          </cc:Agent>
        </dc:publisher>
        <dc:title></dc:title>
        <dc:date>2011-02-21T17:56:46</dc:date>
        <dc:description>A simple globe made in Inkscape.</dc:description>
        <dc:source>https://openclipart.org/detail/121483/a-simple-globe-by-jhnri4</dc:source>
        <dc:creator>
          <cc:Agent>
            <dc:title>jhnri4</dc:title>
          </cc:Agent>
        </dc:creator>
        <dc:subject>
          <rdf:Bag>
            <rdf:li>earth</rdf:li>
            <rdf:li>globe</rdf:li>
            <rdf:li>how i did it</rdf:li>
            <rdf:li>internet</rdf:li>
          </rdf:Bag>
        </dc:subject>
      </cc:Work>
      <cc:License
         rdf:about="http://creativecommons.org/publicdomain/zero/1.0/">
        <cc:permits
           rdf:resource="http://creativecommons.org/ns#Reproduction" />
        <cc:permits
           rdf:resource="http://creativecommons.org/ns#Distribution" />
        <cc:permits
           rdf:resource="http://creativecommons.org/ns#DerivativeWorks" />
      </cc:License>
    </rdf:RDF>
  </metadata>
</svg>
