<svg xmlns="http://www.w3.org/2000/svg" width="215" height="37">
         <defs>
            <style type="text/css">
    @namespace "http://www.w3.org/2000/svg";
    .line                 {fill: none; stroke: #262626; stroke-width: 1;}
    .bold-line            {stroke: #0A0A0A; shape-rendering: crispEdges; stroke-width: 2;}
    .thin-line            {stroke: #0F0F0F; shape-rendering: crispEdges}
    .filled               {fill: #262626; stroke: none;}
    text.terminal         {font-family: Verdana, Sans-serif;
                            font-size: 12px;
                            fill: #0A0A0A;
                            font-weight: bold;
                          }
    text.nonterminal      {font-family: Verdana, Sans-serif;
                            font-size: 12px;
                            fill: #0D0D0D;
                            font-weight: normal;
                          }
    text.regexp           {font-family: Verdana, Sans-serif;
                            font-size: 12px;
                            fill: #0F0F0F;
                            font-weight: normal;
                          }
    rect, circle, polygon {fill: #262626; stroke: #262626;}
    rect.terminal         {fill: #FFFFFF; stroke: #262626; stroke-width: 1;}
    rect.nonterminal      {fill: #FFFFFF; stroke: #262626; stroke-width: 1;}
    rect.text             {fill: none; stroke: none;}
    polygon.regexp        {fill: #FFFFFF; stroke: #262626; stroke-width: 1;}
  </style>
         </defs>
         <polygon points="9 17 1 13 1 21"/>
         <polygon points="17 17 9 13 9 21"/>
         <rect x="31" y="3" width="26" height="32" rx="10"/>
         <rect x="29" y="1" width="26" height="32" class="terminal" rx="10"/>
         <text class="terminal" x="39" y="21">(</text><a xmlns:xlink="http://www.w3.org/1999/xlink" xlink:href="#uttryck" xlink:title="uttryck">
            <rect x="77" y="3" width="64" height="32"/>
            <rect x="75" y="1" width="64" height="32" class="nonterminal"/>
            <text class="nonterminal" x="85" y="21">uttryck</text></a><rect x="161" y="3" width="26" height="32" rx="10"/>
         <rect x="159" y="1" width="26" height="32" class="terminal" rx="10"/>
         <text class="terminal" x="169" y="21">)</text>
         <svg:path xmlns:svg="http://www.w3.org/2000/svg" class="line" d="m17 17 h2 m0 0 h10 m26 0 h10 m0 0 h10 m64 0 h10 m0 0 h10 m26 0 h10 m3 0 h-3"/>
         <polygon points="205 17 213 13 213 21"/>
         <polygon points="205 17 197 13 197 21"/></svg>
