<?xml version="1.0" encoding="UTF-8" standalone="no"?>
<svg
   width="237"
   height="85"
   version="1.1"
   id="svg554"
   sodipodi:docname="nummer.svg"
   inkscape:version="1.1.2 (0a00cf5339, 2022-02-04, custom)"
   xmlns:inkscape="http://www.inkscape.org/namespaces/inkscape"
   xmlns:sodipodi="http://sodipodi.sourceforge.net/DTD/sodipodi-0.dtd"
   xmlns:xlink="http://www.w3.org/1999/xlink"
   xmlns="http://www.w3.org/2000/svg"
   xmlns:svg="http://www.w3.org/2000/svg">
  <sodipodi:namedview
     id="namedview556"
     pagecolor="#ffffff"
     bordercolor="#666666"
     borderopacity="1.0"
     inkscape:pageshadow="2"
     inkscape:pageopacity="0.0"
     inkscape:pagecheckerboard="0"
     showgrid="false"
     inkscape:zoom="4.464135"
     inkscape:cx="118.388"
     inkscape:cy="42.561437"
     inkscape:window-width="1920"
     inkscape:window-height="1009"
     inkscape:window-x="-8"
     inkscape:window-y="-8"
     inkscape:window-maximized="1"
     inkscape:current-layer="svg554" />
  <defs
     id="defs528">
    <style
       type="text/css"
       id="style526">
    @namespace &quot;http://www.w3.org/2000/svg&quot;;
    .line                 {fill: none; stroke: #262626; stroke-width: 1;}
    .bold-line            {stroke: #0A0A0A; shape-rendering: crispEdges; stroke-width: 2;}
    .thin-line            {stroke: #0F0F0F; shape-rendering: crispEdges}
    .filled               {fill: #262626; stroke: none;}
    text.terminal         {font-family: Verdana, Sans-serif;
                            font-size: 12px;
                            fill: #0A0A0A;
                            font-weight: bold;
                          }
    text.nonterminal      {font-family: Verdana, Sans-serif;
                            font-size: 12px;
                            fill: #0D0D0D;
                            font-weight: normal;
                          }
    text.regexp           {font-family: Verdana, Sans-serif;
                            font-size: 12px;
                            fill: #0F0F0F;
                            font-weight: normal;
                          }
    rect, circle, polygon {fill: #262626; stroke: #262626;}
    rect.terminal         {fill: #FFFFFF; stroke: #262626; stroke-width: 1;}
    rect.nonterminal      {fill: #FFFFFF; stroke: #262626; stroke-width: 1;}
    rect.text             {fill: none; stroke: none;}
    polygon.regexp        {fill: #FFFFFF; stroke: #262626; stroke-width: 1;}
  </style>
  </defs>
  <polygon
     points="9 33 1 29 1 37"
     id="polygon530" />
  <polygon
     points="17 33 9 29 9 37"
     id="polygon532" />
  <rect
     x="51"
     y="51"
     width="26"
     height="32"
     rx="10"
     id="rect534" />
  <rect
     x="49"
     y="49"
     width="26"
     height="32"
     class="terminal"
     rx="10"
     id="rect536" />
  <text
     class="terminal"
     x="59"
     y="69"
     id="text538">-</text>
  <a
     xlink:href="#siffra"
     xlink:title="siffra"
     id="a546">
    <rect
       x="137"
       y="19"
       width="52"
       height="32"
       id="rect540" />
    <rect
       x="135"
       y="17"
       width="52"
       height="32"
       class="nonterminal"
       id="rect542" />
    <text
       class="nonterminal"
       x="145"
       y="37"
       id="text544">siffra</text>
  </a>
  <path
     class="line"
     d="m17 33 h2 m20 0 h10 m0 0 h36 m-66 0 h20 m46 0 h20 m-86 0 q10 0 10 10 m66 0 q0 -10 10 -10 m-76 10 v12 m66 0 v-12 m-66 12 q0 10 10 10 m46 0 q10 0 10 -10 m-56 10 h10 m26 0 h10 m40 -32 h10 m52 0 h10 m-92 0 l20 0 m-1 0 q-9 0 -9 -10 l0 -12 q0 -10 10 -10 m72 32 l20 0 m-20 0 q10 0 10 -10 l0 -12 q0 -10 -10 -10 m-72 0 h10 m0 0 h62 m23 32 h-3"
     id="path548" />
  <polygon
     points="227 33 235 29 235 37"
     id="polygon550" />
  <polygon
     points="227 33 219 29 219 37"
     id="polygon552" />
</svg>
