<svg xmlns="http://www.w3.org/2000/svg" width="237" height="85">
         <defs>
            <style type="text/css">
    @namespace "http://www.w3.org/2000/svg";
    .line                 {fill: none; stroke: #262626; stroke-width: 1;}
    .bold-line            {stroke: #0A0A0A; shape-rendering: crispEdges; stroke-width: 2;}
    .thin-line            {stroke: #0F0F0F; shape-rendering: crispEdges}
    .filled               {fill: #262626; stroke: none;}
    text.terminal         {font-family: Verdana, Sans-serif;
                            font-size: 12px;
                            fill: #0A0A0A;
                            font-weight: bold;
                          }
    text.nonterminal      {font-family: Verdana, Sans-serif;
                            font-size: 12px;
                            fill: #0D0D0D;
                            font-weight: normal;
                          }
    text.regexp           {font-family: Verdana, Sans-serif;
                            font-size: 12px;
                            fill: #0F0F0F;
                            font-weight: normal;
                          }
    rect, circle, polygon {fill: #262626; stroke: #262626;}
    rect.terminal         {fill: #FFFFFF; stroke: #262626; stroke-width: 1;}
    rect.nonterminal      {fill: #FFFFFF; stroke: #262626; stroke-width: 1;}
    rect.text             {fill: none; stroke: none;}
    polygon.regexp        {fill: #FFFFFF; stroke: #262626; stroke-width: 1;}
  </style>
         </defs>
         <polygon points="9 33 1 29 1 37"/>
         <polygon points="17 33 9 29 9 37"/>
         <rect x="51" y="51" width="26" height="32" rx="10"/>
         <rect x="49" y="49" width="26" height="32" class="terminal" rx="10"/>
         <text class="terminal" x="59" y="69">-</text><a xmlns:xlink="http://www.w3.org/1999/xlink" xlink:href="#siffra" xlink:title="siffra">
            <rect x="137" y="19" width="52" height="32"/>
            <rect x="135" y="17" width="52" height="32" class="nonterminal"/>
            <text class="nonterminal" x="145" y="37">siffra</text></a><svg:path xmlns:svg="http://www.w3.org/2000/svg" class="line" d="m17 33 h2 m20 0 h10 m0 0 h36 m-66 0 h20 m46 0 h20 m-86 0 q10 0 10 10 m66 0 q0 -10 10 -10 m-76 10 v12 m66 0 v-12 m-66 12 q0 10 10 10 m46 0 q10 0 10 -10 m-56 10 h10 m26 0 h10 m40 -32 h10 m52 0 h10 m-92 0 l20 0 m-1 0 q-9 0 -9 -10 l0 -12 q0 -10 10 -10 m72 32 l20 0 m-20 0 q10 0 10 -10 l0 -12 q0 -10 -10 -10 m-72 0 h10 m0 0 h62 m23 32 h-3"/>
         <polygon points="227 33 235 29 235 37"/>
         <polygon points="227 33 219 29 219 37"/></svg>
