<svg xmlns="http://www.w3.org/2000/svg" width="301" height="37">
         <defs>
            <style type="text/css">
    @namespace "http://www.w3.org/2000/svg";
    .line                 {fill: none; stroke: #262626; stroke-width: 1;}
    .bold-line            {stroke: #0A0A0A; shape-rendering: crispEdges; stroke-width: 2;}
    .thin-line            {stroke: #0F0F0F; shape-rendering: crispEdges}
    .filled               {fill: #262626; stroke: none;}
    text.terminal         {font-family: Verdana, Sans-serif;
                            font-size: 12px;
                            fill: #0A0A0A;
                            font-weight: bold;
                          }
    text.nonterminal      {font-family: Verdana, Sans-serif;
                            font-size: 12px;
                            fill: #0D0D0D;
                            font-weight: normal;
                          }
    text.regexp           {font-family: Verdana, Sans-serif;
                            font-size: 12px;
                            fill: #0F0F0F;
                            font-weight: normal;
                          }
    rect, circle, polygon {fill: #262626; stroke: #262626;}
    rect.terminal         {fill: #FFFFFF; stroke: #262626; stroke-width: 1;}
    rect.nonterminal      {fill: #FFFFFF; stroke: #262626; stroke-width: 1;}
    rect.text             {fill: none; stroke: none;}
    polygon.regexp        {fill: #FFFFFF; stroke: #262626; stroke-width: 1;}
  </style>
         </defs>
         <polygon points="9 17 1 13 1 21"/>
         <polygon points="17 17 9 13 9 21"/><a xmlns:xlink="http://www.w3.org/1999/xlink" xlink:href="#uttryck" xlink:title="uttryck">
            <rect x="31" y="3" width="64" height="32"/>
            <rect x="29" y="1" width="64" height="32" class="nonterminal"/>
            <text class="nonterminal" x="39" y="21">uttryck</text></a><a xmlns:xlink="http://www.w3.org/1999/xlink" xlink:href="#operator" xlink:title="operator">
            <rect x="115" y="3" width="74" height="32"/>
            <rect x="113" y="1" width="74" height="32" class="nonterminal"/>
            <text class="nonterminal" x="123" y="21">operator</text></a><a xmlns:xlink="http://www.w3.org/1999/xlink" xlink:href="#uttryck" xlink:title="uttryck">
            <rect x="209" y="3" width="64" height="32"/>
            <rect x="207" y="1" width="64" height="32" class="nonterminal"/>
            <text class="nonterminal" x="217" y="21">uttryck</text></a><svg:path xmlns:svg="http://www.w3.org/2000/svg" class="line" d="m17 17 h2 m0 0 h10 m64 0 h10 m0 0 h10 m74 0 h10 m0 0 h10 m64 0 h10 m3 0 h-3"/>
         <polygon points="291 17 299 13 299 21"/>
         <polygon points="291 17 283 13 283 21"/></svg>
