<?xml version="1.0" encoding="UTF-8" standalone="no"?>
<svg
   width="129"
   height="169"
   version="1.1"
   id="svg654"
   sodipodi:docname="operator.svg"
   inkscape:version="1.1.2 (0a00cf5339, 2022-02-04, custom)"
   xmlns:inkscape="http://www.inkscape.org/namespaces/inkscape"
   xmlns:sodipodi="http://sodipodi.sourceforge.net/DTD/sodipodi-0.dtd"
   xmlns="http://www.w3.org/2000/svg"
   xmlns:svg="http://www.w3.org/2000/svg">
  <sodipodi:namedview
     id="namedview656"
     pagecolor="#ffffff"
     bordercolor="#666666"
     borderopacity="1.0"
     inkscape:pageshadow="2"
     inkscape:pageopacity="0.0"
     inkscape:pagecheckerboard="0"
     showgrid="false"
     inkscape:zoom="4.8698225"
     inkscape:cx="64.581409"
     inkscape:cy="84.602673"
     inkscape:window-width="1920"
     inkscape:window-height="1009"
     inkscape:window-x="-8"
     inkscape:window-y="-8"
     inkscape:window-maximized="1"
     inkscape:current-layer="svg654" />
  <defs
     id="defs618">
    <style
       type="text/css"
       id="style616">
    @namespace &quot;http://www.w3.org/2000/svg&quot;;
    .line                 {fill: none; stroke: #262626; stroke-width: 1;}
    .bold-line            {stroke: #0A0A0A; shape-rendering: crispEdges; stroke-width: 2;}
    .thin-line            {stroke: #0F0F0F; shape-rendering: crispEdges}
    .filled               {fill: #262626; stroke: none;}
    text.terminal         {font-family: Verdana, Sans-serif;
                            font-size: 12px;
                            fill: #0A0A0A;
                            font-weight: bold;
                          }
    text.nonterminal      {font-family: Verdana, Sans-serif;
                            font-size: 12px;
                            fill: #0D0D0D;
                            font-weight: normal;
                          }
    text.regexp           {font-family: Verdana, Sans-serif;
                            font-size: 12px;
                            fill: #0F0F0F;
                            font-weight: normal;
                          }
    rect, circle, polygon {fill: #262626; stroke: #262626;}
    rect.terminal         {fill: #FFFFFF; stroke: #262626; stroke-width: 1;}
    rect.nonterminal      {fill: #FFFFFF; stroke: #262626; stroke-width: 1;}
    rect.text             {fill: none; stroke: none;}
    polygon.regexp        {fill: #FFFFFF; stroke: #262626; stroke-width: 1;}
  </style>
  </defs>
  <polygon
     points="9 17 1 13 1 21"
     id="polygon620" />
  <polygon
     points="17 17 9 13 9 21"
     id="polygon622" />
  <rect
     x="51"
     y="3"
     width="30"
     height="32"
     rx="10"
     id="rect624" />
  <rect
     x="49"
     y="1"
     width="30"
     height="32"
     class="terminal"
     rx="10"
     id="rect626" />
  <text
     class="terminal"
     x="59"
     y="21"
     id="text628">+</text>
  <rect
     x="51"
     y="47"
     width="26"
     height="32"
     rx="10"
     id="rect630" />
  <rect
     x="49"
     y="45"
     width="26"
     height="32"
     class="terminal"
     rx="10"
     id="rect632" />
  <text
     class="terminal"
     x="59"
     y="65"
     id="text634">-</text>
  <rect
     x="51"
     y="91"
     width="30"
     height="32"
     rx="10"
     id="rect636" />
  <rect
     x="49"
     y="89"
     width="30"
     height="32"
     class="terminal"
     rx="10"
     id="rect638" />
  <text
     class="terminal"
     x="59"
     y="109"
     id="text640">ร</text>
  <rect
     x="51"
     y="135"
     width="30"
     height="32"
     rx="10"
     id="rect642" />
  <rect
     x="49"
     y="133"
     width="30"
     height="32"
     class="terminal"
     rx="10"
     id="rect644" />
  <text
     class="terminal"
     x="59"
     y="153"
     id="text646">รท</text>
  <path
     class="line"
     d="m17 17 h2 m20 0 h10 m30 0 h10 m-70 0 h20 m50 0 h20 m-90 0 q10 0 10 10 m70 0 q0 -10 10 -10 m-80 10 v24 m70 0 v-24 m-70 24 q0 10 10 10 m50 0 q10 0 10 -10 m-60 10 h10 m26 0 h10 m0 0 h4 m-60 -10 v20 m70 0 v-20 m-70 20 v24 m70 0 v-24 m-70 24 q0 10 10 10 m50 0 q10 0 10 -10 m-60 10 h10 m30 0 h10 m-60 -10 v20 m70 0 v-20 m-70 20 v24 m70 0 v-24 m-70 24 q0 10 10 10 m50 0 q10 0 10 -10 m-60 10 h10 m30 0 h10 m23 -132 h-3"
     id="path648" />
  <polygon
     points="119 17 127 13 127 21"
     id="polygon650" />
  <polygon
     points="119 17 111 13 111 21"
     id="polygon652" />
</svg>
