<?xml version="1.0" encoding="UTF-8" standalone="no"?>
<svg
   width="127"
   height="433"
   version="1.1"
   id="svg451"
   sodipodi:docname="siffra.svg"
   inkscape:version="1.1.2 (0a00cf5339, 2022-02-04, custom)"
   xmlns:inkscape="http://www.inkscape.org/namespaces/inkscape"
   xmlns:sodipodi="http://sodipodi.sourceforge.net/DTD/sodipodi-0.dtd"
   xmlns="http://www.w3.org/2000/svg"
   xmlns:svg="http://www.w3.org/2000/svg">
  <sodipodi:namedview
     id="namedview453"
     pagecolor="#ffffff"
     bordercolor="#666666"
     borderopacity="1.0"
     inkscape:pageshadow="2"
     inkscape:pageopacity="0.0"
     inkscape:pagecheckerboard="0"
     showgrid="false"
     inkscape:zoom="1.9006928"
     inkscape:cx="63.397934"
     inkscape:cy="216.76306"
     inkscape:window-width="1920"
     inkscape:window-height="1009"
     inkscape:window-x="-8"
     inkscape:window-y="-8"
     inkscape:window-maximized="1"
     inkscape:current-layer="svg451" />
  <defs
     id="defs379">
    <style
       type="text/css"
       id="style377">
    @namespace &quot;http://www.w3.org/2000/svg&quot;;
    .line                 {fill: none; stroke: #262626; stroke-width: 1;}
    .bold-line            {stroke: #0A0A0A; shape-rendering: crispEdges; stroke-width: 2;}
    .thin-line            {stroke: #0F0F0F; shape-rendering: crispEdges}
    .filled               {fill: #262626; stroke: none;}
    text.terminal         {font-family: Verdana, Sans-serif;
                            font-size: 12px;
                            fill: #0A0A0A;
                            font-weight: bold;
                          }
    text.nonterminal      {font-family: Verdana, Sans-serif;
                            font-size: 12px;
                            fill: #0D0D0D;
                            font-weight: normal;
                          }
    text.regexp           {font-family: Verdana, Sans-serif;
                            font-size: 12px;
                            fill: #0F0F0F;
                            font-weight: normal;
                          }
    rect, circle, polygon {fill: #262626; stroke: #262626;}
    rect.terminal         {fill: #FFFFFF; stroke: #262626; stroke-width: 1;}
    rect.nonterminal      {fill: #FFFFFF; stroke: #262626; stroke-width: 1;}
    rect.text             {fill: none; stroke: none;}
    polygon.regexp        {fill: #FFFFFF; stroke: #262626; stroke-width: 1;}
  </style>
  </defs>
  <polygon
     points="9 17 1 13 1 21"
     id="polygon381" />
  <polygon
     points="17 17 9 13 9 21"
     id="polygon383" />
  <rect
     x="51"
     y="3"
     width="28"
     height="32"
     rx="10"
     id="rect385" />
  <rect
     x="49"
     y="1"
     width="28"
     height="32"
     class="terminal"
     rx="10"
     id="rect387" />
  <text
     class="terminal"
     x="59"
     y="21"
     id="text389">0</text>
  <rect
     x="51"
     y="47"
     width="28"
     height="32"
     rx="10"
     id="rect391" />
  <rect
     x="49"
     y="45"
     width="28"
     height="32"
     class="terminal"
     rx="10"
     id="rect393" />
  <text
     class="terminal"
     x="59"
     y="65"
     id="text395">1</text>
  <rect
     x="51"
     y="91"
     width="28"
     height="32"
     rx="10"
     id="rect397" />
  <rect
     x="49"
     y="89"
     width="28"
     height="32"
     class="terminal"
     rx="10"
     id="rect399" />
  <text
     class="terminal"
     x="59"
     y="109"
     id="text401">2</text>
  <rect
     x="51"
     y="135"
     width="28"
     height="32"
     rx="10"
     id="rect403" />
  <rect
     x="49"
     y="133"
     width="28"
     height="32"
     class="terminal"
     rx="10"
     id="rect405" />
  <text
     class="terminal"
     x="59"
     y="153"
     id="text407">3</text>
  <rect
     x="51"
     y="179"
     width="28"
     height="32"
     rx="10"
     id="rect409" />
  <rect
     x="49"
     y="177"
     width="28"
     height="32"
     class="terminal"
     rx="10"
     id="rect411" />
  <text
     class="terminal"
     x="59"
     y="197"
     id="text413">4</text>
  <rect
     x="51"
     y="223"
     width="28"
     height="32"
     rx="10"
     id="rect415" />
  <rect
     x="49"
     y="221"
     width="28"
     height="32"
     class="terminal"
     rx="10"
     id="rect417" />
  <text
     class="terminal"
     x="59"
     y="241"
     id="text419">5</text>
  <rect
     x="51"
     y="267"
     width="28"
     height="32"
     rx="10"
     id="rect421" />
  <rect
     x="49"
     y="265"
     width="28"
     height="32"
     class="terminal"
     rx="10"
     id="rect423" />
  <text
     class="terminal"
     x="59"
     y="285"
     id="text425">6</text>
  <rect
     x="51"
     y="311"
     width="28"
     height="32"
     rx="10"
     id="rect427" />
  <rect
     x="49"
     y="309"
     width="28"
     height="32"
     class="terminal"
     rx="10"
     id="rect429" />
  <text
     class="terminal"
     x="59"
     y="329"
     id="text431">7</text>
  <rect
     x="51"
     y="355"
     width="28"
     height="32"
     rx="10"
     id="rect433" />
  <rect
     x="49"
     y="353"
     width="28"
     height="32"
     class="terminal"
     rx="10"
     id="rect435" />
  <text
     class="terminal"
     x="59"
     y="373"
     id="text437">8</text>
  <rect
     x="51"
     y="399"
     width="28"
     height="32"
     rx="10"
     id="rect439" />
  <rect
     x="49"
     y="397"
     width="28"
     height="32"
     class="terminal"
     rx="10"
     id="rect441" />
  <text
     class="terminal"
     x="59"
     y="417"
     id="text443">9</text>
  <path
     class="line"
     d="m17 17 h2 m20 0 h10 m28 0 h10 m-68 0 h20 m48 0 h20 m-88 0 q10 0 10 10 m68 0 q0 -10 10 -10 m-78 10 v24 m68 0 v-24 m-68 24 q0 10 10 10 m48 0 q10 0 10 -10 m-58 10 h10 m28 0 h10 m-58 -10 v20 m68 0 v-20 m-68 20 v24 m68 0 v-24 m-68 24 q0 10 10 10 m48 0 q10 0 10 -10 m-58 10 h10 m28 0 h10 m-58 -10 v20 m68 0 v-20 m-68 20 v24 m68 0 v-24 m-68 24 q0 10 10 10 m48 0 q10 0 10 -10 m-58 10 h10 m28 0 h10 m-58 -10 v20 m68 0 v-20 m-68 20 v24 m68 0 v-24 m-68 24 q0 10 10 10 m48 0 q10 0 10 -10 m-58 10 h10 m28 0 h10 m-58 -10 v20 m68 0 v-20 m-68 20 v24 m68 0 v-24 m-68 24 q0 10 10 10 m48 0 q10 0 10 -10 m-58 10 h10 m28 0 h10 m-58 -10 v20 m68 0 v-20 m-68 20 v24 m68 0 v-24 m-68 24 q0 10 10 10 m48 0 q10 0 10 -10 m-58 10 h10 m28 0 h10 m-58 -10 v20 m68 0 v-20 m-68 20 v24 m68 0 v-24 m-68 24 q0 10 10 10 m48 0 q10 0 10 -10 m-58 10 h10 m28 0 h10 m-58 -10 v20 m68 0 v-20 m-68 20 v24 m68 0 v-24 m-68 24 q0 10 10 10 m48 0 q10 0 10 -10 m-58 10 h10 m28 0 h10 m-58 -10 v20 m68 0 v-20 m-68 20 v24 m68 0 v-24 m-68 24 q0 10 10 10 m48 0 q10 0 10 -10 m-58 10 h10 m28 0 h10 m23 -396 h-3"
     id="path445" />
  <polygon
     points="117 17 125 13 125 21"
     id="polygon447" />
  <polygon
     points="117 17 109 13 109 21"
     id="polygon449" />
</svg>
