<svg xmlns="http://www.w3.org/2000/svg" width="189" height="125">
         <defs>
            <style type="text/css">
    @namespace "http://www.w3.org/2000/svg";
    .line                 {fill: none; stroke: #262626; stroke-width: 1;}
    .bold-line            {stroke: #0A0A0A; shape-rendering: crispEdges; stroke-width: 2;}
    .thin-line            {stroke: #0F0F0F; shape-rendering: crispEdges}
    .filled               {fill: #262626; stroke: none;}
    text.terminal         {font-family: Verdana, Sans-serif;
                            font-size: 12px;
                            fill: #0A0A0A;
                            font-weight: bold;
                          }
    text.nonterminal      {font-family: Verdana, Sans-serif;
                            font-size: 12px;
                            fill: #0D0D0D;
                            font-weight: normal;
                          }
    text.regexp           {font-family: Verdana, Sans-serif;
                            font-size: 12px;
                            fill: #0F0F0F;
                            font-weight: normal;
                          }
    rect, circle, polygon {fill: #262626; stroke: #262626;}
    rect.terminal         {fill: #FFFFFF; stroke: #262626; stroke-width: 1;}
    rect.nonterminal      {fill: #FFFFFF; stroke: #262626; stroke-width: 1;}
    rect.text             {fill: none; stroke: none;}
    polygon.regexp        {fill: #FFFFFF; stroke: #262626; stroke-width: 1;}
  </style>
         </defs>
         <polygon points="9 17 1 13 1 21"/>
         <polygon points="17 17 9 13 9 21"/><a xmlns:xlink="http://www.w3.org/1999/xlink" xlink:href="#nummer" xlink:title="nummer">
            <rect x="51" y="3" width="72" height="32"/>
            <rect x="49" y="1" width="72" height="32" class="nonterminal"/>
            <text class="nonterminal" x="59" y="21">nummer</text></a><a xmlns:xlink="http://www.w3.org/1999/xlink" xlink:href="#operation" xlink:title="operation">
            <rect x="51" y="47" width="80" height="32"/>
            <rect x="49" y="45" width="80" height="32" class="nonterminal"/>
            <text class="nonterminal" x="59" y="65">operation</text></a><a xmlns:xlink="http://www.w3.org/1999/xlink" xlink:href="#gruppering" xlink:title="gruppering">
            <rect x="51" y="91" width="90" height="32"/>
            <rect x="49" y="89" width="90" height="32" class="nonterminal"/>
            <text class="nonterminal" x="59" y="109">gruppering</text></a><svg:path xmlns:svg="http://www.w3.org/2000/svg" class="line" d="m17 17 h2 m20 0 h10 m72 0 h10 m0 0 h18 m-130 0 h20 m110 0 h20 m-150 0 q10 0 10 10 m130 0 q0 -10 10 -10 m-140 10 v24 m130 0 v-24 m-130 24 q0 10 10 10 m110 0 q10 0 10 -10 m-120 10 h10 m80 0 h10 m0 0 h10 m-120 -10 v20 m130 0 v-20 m-130 20 v24 m130 0 v-24 m-130 24 q0 10 10 10 m110 0 q10 0 10 -10 m-120 10 h10 m90 0 h10 m23 -88 h-3"/>
         <polygon points="179 17 187 13 187 21"/>
         <polygon points="179 17 171 13 171 21"/></svg>
