<?xml version="1.0" encoding="UTF-8" standalone="no"?>
<svg
   width="189"
   height="125"
   version="1.1"
   id="svg959"
   sodipodi:docname="uttryck.svg"
   inkscape:version="1.1.2 (0a00cf5339, 2022-02-04, custom)"
   xmlns:inkscape="http://www.inkscape.org/namespaces/inkscape"
   xmlns:sodipodi="http://sodipodi.sourceforge.net/DTD/sodipodi-0.dtd"
   xmlns:xlink="http://www.w3.org/1999/xlink"
   xmlns="http://www.w3.org/2000/svg"
   xmlns:svg="http://www.w3.org/2000/svg">
  <sodipodi:namedview
     id="namedview961"
     pagecolor="#ffffff"
     bordercolor="#666666"
     borderopacity="1.0"
     inkscape:pageshadow="2"
     inkscape:pageopacity="0.0"
     inkscape:pagecheckerboard="0"
     showgrid="false"
     inkscape:zoom="5.5978836"
     inkscape:cx="94.410681"
     inkscape:cy="62.523629"
     inkscape:window-width="1920"
     inkscape:window-height="1009"
     inkscape:window-x="-8"
     inkscape:window-y="-8"
     inkscape:window-maximized="1"
     inkscape:current-layer="svg959" />
  <defs
     id="defs923">
    <style
       type="text/css"
       id="style921">
    @namespace &quot;http://www.w3.org/2000/svg&quot;;
    .line                 {fill: none; stroke: #262626; stroke-width: 1;}
    .bold-line            {stroke: #0A0A0A; shape-rendering: crispEdges; stroke-width: 2;}
    .thin-line            {stroke: #0F0F0F; shape-rendering: crispEdges}
    .filled               {fill: #262626; stroke: none;}
    text.terminal         {font-family: Verdana, Sans-serif;
                            font-size: 12px;
                            fill: #0A0A0A;
                            font-weight: bold;
                          }
    text.nonterminal      {font-family: Verdana, Sans-serif;
                            font-size: 12px;
                            fill: #0D0D0D;
                            font-weight: normal;
                          }
    text.regexp           {font-family: Verdana, Sans-serif;
                            font-size: 12px;
                            fill: #0F0F0F;
                            font-weight: normal;
                          }
    rect, circle, polygon {fill: #262626; stroke: #262626;}
    rect.terminal         {fill: #FFFFFF; stroke: #262626; stroke-width: 1;}
    rect.nonterminal      {fill: #FFFFFF; stroke: #262626; stroke-width: 1;}
    rect.text             {fill: none; stroke: none;}
    polygon.regexp        {fill: #FFFFFF; stroke: #262626; stroke-width: 1;}
  </style>
  </defs>
  <polygon
     points="9 17 1 13 1 21"
     id="polygon925" />
  <polygon
     points="17 17 9 13 9 21"
     id="polygon927" />
  <a
     xlink:href="#nummer"
     xlink:title="nummer"
     id="a935">
    <rect
       x="51"
       y="3"
       width="72"
       height="32"
       id="rect929" />
    <rect
       x="49"
       y="1"
       width="72"
       height="32"
       class="nonterminal"
       id="rect931" />
    <text
       class="nonterminal"
       x="59"
       y="21"
       id="text933">nummer</text>
  </a>
  <a
     xlink:href="#operation"
     xlink:title="operation"
     id="a943">
    <rect
       x="51"
       y="47"
       width="80"
       height="32"
       id="rect937" />
    <rect
       x="49"
       y="45"
       width="80"
       height="32"
       class="nonterminal"
       id="rect939" />
    <text
       class="nonterminal"
       x="59"
       y="65"
       id="text941">operation</text>
  </a>
  <a
     xlink:href="#gruppering"
     xlink:title="gruppering"
     id="a951">
    <rect
       x="51"
       y="91"
       width="90"
       height="32"
       id="rect945" />
    <rect
       x="49"
       y="89"
       width="90"
       height="32"
       class="nonterminal"
       id="rect947" />
    <text
       class="nonterminal"
       x="59"
       y="109"
       id="text949">gruppering</text>
  </a>
  <path
     class="line"
     d="m17 17 h2 m20 0 h10 m72 0 h10 m0 0 h18 m-130 0 h20 m110 0 h20 m-150 0 q10 0 10 10 m130 0 q0 -10 10 -10 m-140 10 v24 m130 0 v-24 m-130 24 q0 10 10 10 m110 0 q10 0 10 -10 m-120 10 h10 m80 0 h10 m0 0 h10 m-120 -10 v20 m130 0 v-20 m-130 20 v24 m130 0 v-24 m-130 24 q0 10 10 10 m110 0 q10 0 10 -10 m-120 10 h10 m90 0 h10 m23 -88 h-3"
     id="path953" />
  <polygon
     points="179 17 187 13 187 21"
     id="polygon955" />
  <polygon
     points="179 17 171 13 171 21"
     id="polygon957" />
</svg>
